%FSLAX45Y45*%
G04 Gerber Fmt 4.5, Leading zero omitted, Abs format (unit mm)*
G04 Created by KiCad (PCBNEW 5.1.12-84ad8e8a86~92~ubuntu20.04.1) date 2022-03-17 08:21:58*
%MOMM*%
%LPD*%
G01*
G04 APERTURE LIST*
%TA.AperFunction,Profile*%
%ADD10C,0.050000*%
%TD*%
%ADD11C,0.200000*%
%ADD12C,0.300000*%
G04 APERTURE END LIST*
D10*
X1524000Y-15938500D02*
X1524000Y-6731000D01*
X41529000Y-15938500D02*
X1524000Y-15938500D01*
X41529000Y-6731000D02*
X41529000Y-15938500D01*
X1524000Y-6731000D02*
X41529000Y-6731000D01*
D11*
X6552250Y-10082850D02*
X6592250Y-10122850D01*
X6592250Y-10082850D02*
X6552250Y-10122850D01*
X8108000Y-13778550D02*
X8148000Y-13818550D01*
X8148000Y-13778550D02*
X8108000Y-13818550D01*
X10197150Y-14216700D02*
X10237150Y-14256700D01*
X10237150Y-14216700D02*
X10197150Y-14256700D01*
X10476550Y-10781350D02*
X10516550Y-10821350D01*
X10516550Y-10781350D02*
X10476550Y-10821350D01*
X12565700Y-11676700D02*
X12605700Y-11716700D01*
X12605700Y-11676700D02*
X12565700Y-11716700D01*
X30815600Y-8273100D02*
X30855600Y-8313100D01*
X30855600Y-8273100D02*
X30815600Y-8313100D01*
X30847350Y-12730800D02*
X30887350Y-12770800D01*
X30887350Y-12730800D02*
X30847350Y-12770800D01*
X30936250Y-8704900D02*
X30976250Y-8744900D01*
X30976250Y-8704900D02*
X30936250Y-8744900D01*
X32466600Y-9143050D02*
X32506600Y-9183050D01*
X32506600Y-9143050D02*
X32466600Y-9183050D01*
X32809500Y-10762300D02*
X32849500Y-10802300D01*
X32849500Y-10762300D02*
X32809500Y-10802300D01*
X33420850Y-10347800D02*
X33460850Y-10387800D01*
X33460850Y-10347800D02*
X33420850Y-10387800D01*
X36721100Y-7847650D02*
X36761100Y-7887650D01*
X36761100Y-7847650D02*
X36721100Y-7887650D01*
X36721100Y-7847650D02*
X36761100Y-7887650D01*
X36761100Y-7847650D02*
X36721100Y-7887650D01*
X8402950Y-11633200D02*
G75*
G03*
X8402950Y-11633200I-40000J0D01*
G01*
X8402950Y-11887200D02*
G75*
G03*
X8402950Y-11887200I-40000J0D01*
G01*
X8402950Y-12141200D02*
G75*
G03*
X8402950Y-12141200I-40000J0D01*
G01*
X8409300Y-10502900D02*
G75*
G03*
X8409300Y-10502900I-40000J0D01*
G01*
X8409300Y-10756900D02*
G75*
G03*
X8409300Y-10756900I-40000J0D01*
G01*
X8409300Y-11010900D02*
G75*
G03*
X8409300Y-11010900I-40000J0D01*
G01*
X9164950Y-11633200D02*
G75*
G03*
X9164950Y-11633200I-40000J0D01*
G01*
X9164950Y-11887200D02*
G75*
G03*
X9164950Y-11887200I-40000J0D01*
G01*
X9164950Y-12141200D02*
G75*
G03*
X9164950Y-12141200I-40000J0D01*
G01*
X9171300Y-10502900D02*
G75*
G03*
X9171300Y-10502900I-40000J0D01*
G01*
X9171300Y-10756900D02*
G75*
G03*
X9171300Y-10756900I-40000J0D01*
G01*
X9171300Y-11010900D02*
G75*
G03*
X9171300Y-11010900I-40000J0D01*
G01*
X10200000Y-8699500D02*
G75*
G03*
X10200000Y-8699500I-40000J0D01*
G01*
X10200000Y-8953500D02*
G75*
G03*
X10200000Y-8953500I-40000J0D01*
G01*
X10200000Y-9207500D02*
G75*
G03*
X10200000Y-9207500I-40000J0D01*
G01*
X10962000Y-8699500D02*
G75*
G03*
X10962000Y-8699500I-40000J0D01*
G01*
X10962000Y-8953500D02*
G75*
G03*
X10962000Y-8953500I-40000J0D01*
G01*
X10962000Y-9207500D02*
G75*
G03*
X10962000Y-9207500I-40000J0D01*
G01*
X12682850Y-9309100D02*
G75*
G03*
X12682850Y-9309100I-40000J0D01*
G01*
X12682850Y-10579100D02*
G75*
G03*
X12682850Y-10579100I-40000J0D01*
G01*
X13203550Y-9309100D02*
G75*
G03*
X13203550Y-9309100I-40000J0D01*
G01*
X13203550Y-10579100D02*
G75*
G03*
X13203550Y-10579100I-40000J0D01*
G01*
X18366100Y-10225000D02*
G75*
G03*
X18366100Y-10225000I-40000J0D01*
G01*
X18366100Y-11873000D02*
G75*
G03*
X18366100Y-11873000I-40000J0D01*
G01*
X19394800Y-12739600D02*
G75*
G03*
X19394800Y-12739600I-40000J0D01*
G01*
X19394800Y-14387600D02*
G75*
G03*
X19394800Y-14387600I-40000J0D01*
G01*
X19953600Y-9666200D02*
G75*
G03*
X19953600Y-9666200I-40000J0D01*
G01*
X19953600Y-11314200D02*
G75*
G03*
X19953600Y-11314200I-40000J0D01*
G01*
X21071200Y-9666200D02*
G75*
G03*
X21071200Y-9666200I-40000J0D01*
G01*
X21071200Y-11314200D02*
G75*
G03*
X21071200Y-11314200I-40000J0D01*
G01*
X22188800Y-9666200D02*
G75*
G03*
X22188800Y-9666200I-40000J0D01*
G01*
X22188800Y-11314200D02*
G75*
G03*
X22188800Y-11314200I-40000J0D01*
G01*
X23344500Y-9666200D02*
G75*
G03*
X23344500Y-9666200I-40000J0D01*
G01*
X23344500Y-11314200D02*
G75*
G03*
X23344500Y-11314200I-40000J0D01*
G01*
X24500200Y-9666200D02*
G75*
G03*
X24500200Y-9666200I-40000J0D01*
G01*
X24500200Y-11314200D02*
G75*
G03*
X24500200Y-11314200I-40000J0D01*
G01*
X25643200Y-9666200D02*
G75*
G03*
X25643200Y-9666200I-40000J0D01*
G01*
X25643200Y-11314200D02*
G75*
G03*
X25643200Y-11314200I-40000J0D01*
G01*
X26748100Y-9666200D02*
G75*
G03*
X26748100Y-9666200I-40000J0D01*
G01*
X26748100Y-11314200D02*
G75*
G03*
X26748100Y-11314200I-40000J0D01*
G01*
X27840300Y-9666200D02*
G75*
G03*
X27840300Y-9666200I-40000J0D01*
G01*
X27840300Y-11314200D02*
G75*
G03*
X27840300Y-11314200I-40000J0D01*
G01*
X28932500Y-9666200D02*
G75*
G03*
X28932500Y-9666200I-40000J0D01*
G01*
X28932500Y-11314200D02*
G75*
G03*
X28932500Y-11314200I-40000J0D01*
G01*
X30037400Y-9666200D02*
G75*
G03*
X30037400Y-9666200I-40000J0D01*
G01*
X30037400Y-11314200D02*
G75*
G03*
X30037400Y-11314200I-40000J0D01*
G01*
X10026650Y-10271450D02*
X10026650Y-10391450D01*
X9966650Y-10331450D02*
X10086650Y-10331450D01*
X10026650Y-13319450D02*
X10026650Y-13439450D01*
X9966650Y-13379450D02*
X10086650Y-13379450D01*
X11093450Y-10271450D02*
X11093450Y-10391450D01*
X11033450Y-10331450D02*
X11153450Y-10331450D01*
X11093450Y-13319450D02*
X11093450Y-13439450D01*
X11033450Y-13379450D02*
X11153450Y-13379450D01*
X12719050Y-11408100D02*
X12719050Y-11528100D01*
X12659050Y-11468100D02*
X12779050Y-11468100D01*
X15767050Y-11408100D02*
X15767050Y-11528100D01*
X15707050Y-11468100D02*
X15827050Y-11468100D01*
X18326100Y-9465000D02*
X18326100Y-9585000D01*
X18266100Y-9525000D02*
X18386100Y-9525000D01*
X18326100Y-12513000D02*
X18326100Y-12633000D01*
X18266100Y-12573000D02*
X18386100Y-12573000D01*
X19354800Y-11979600D02*
X19354800Y-12099600D01*
X19294800Y-12039600D02*
X19414800Y-12039600D01*
X19354800Y-15027600D02*
X19354800Y-15147600D01*
X19294800Y-15087600D02*
X19414800Y-15087600D01*
X19913600Y-8906200D02*
X19913600Y-9026200D01*
X19853600Y-8966200D02*
X19973600Y-8966200D01*
X19913600Y-11954200D02*
X19913600Y-12074200D01*
X19853600Y-12014200D02*
X19973600Y-12014200D01*
X21031200Y-8906200D02*
X21031200Y-9026200D01*
X20971200Y-8966200D02*
X21091200Y-8966200D01*
X21031200Y-11954200D02*
X21031200Y-12074200D01*
X20971200Y-12014200D02*
X21091200Y-12014200D01*
X22148800Y-8906200D02*
X22148800Y-9026200D01*
X22088800Y-8966200D02*
X22208800Y-8966200D01*
X22148800Y-11954200D02*
X22148800Y-12074200D01*
X22088800Y-12014200D02*
X22208800Y-12014200D01*
X23304500Y-8906200D02*
X23304500Y-9026200D01*
X23244500Y-8966200D02*
X23364500Y-8966200D01*
X23304500Y-11954200D02*
X23304500Y-12074200D01*
X23244500Y-12014200D02*
X23364500Y-12014200D01*
X24460200Y-8906200D02*
X24460200Y-9026200D01*
X24400200Y-8966200D02*
X24520200Y-8966200D01*
X24460200Y-11954200D02*
X24460200Y-12074200D01*
X24400200Y-12014200D02*
X24520200Y-12014200D01*
X25603200Y-8906200D02*
X25603200Y-9026200D01*
X25543200Y-8966200D02*
X25663200Y-8966200D01*
X25603200Y-11954200D02*
X25603200Y-12074200D01*
X25543200Y-12014200D02*
X25663200Y-12014200D01*
X26708100Y-8906200D02*
X26708100Y-9026200D01*
X26648100Y-8966200D02*
X26768100Y-8966200D01*
X26708100Y-11954200D02*
X26708100Y-12074200D01*
X26648100Y-12014200D02*
X26768100Y-12014200D01*
X27800300Y-8906200D02*
X27800300Y-9026200D01*
X27740300Y-8966200D02*
X27860300Y-8966200D01*
X27800300Y-11954200D02*
X27800300Y-12074200D01*
X27740300Y-12014200D02*
X27860300Y-12014200D01*
X28892500Y-8906200D02*
X28892500Y-9026200D01*
X28832500Y-8966200D02*
X28952500Y-8966200D01*
X28892500Y-11954200D02*
X28892500Y-12074200D01*
X28832500Y-12014200D02*
X28952500Y-12014200D01*
X29997400Y-8906200D02*
X29997400Y-9026200D01*
X29937400Y-8966200D02*
X30057400Y-8966200D01*
X29997400Y-11954200D02*
X29997400Y-12074200D01*
X29937400Y-12014200D02*
X30057400Y-12014200D01*
X30973533Y-11203633D02*
X30973533Y-11097567D01*
X30867466Y-11097567D01*
X30867466Y-11203633D01*
X30973533Y-11203633D01*
X30986233Y-9324034D02*
X30986233Y-9217967D01*
X30880166Y-9217967D01*
X30880166Y-9324034D01*
X30986233Y-9324034D01*
X31735533Y-11203633D02*
X31735533Y-11097567D01*
X31629466Y-11097567D01*
X31629466Y-11203633D01*
X31735533Y-11203633D01*
X31748233Y-9324034D02*
X31748233Y-9217967D01*
X31642166Y-9217967D01*
X31642166Y-9324034D01*
X31748233Y-9324034D01*
X33771534Y-11203633D02*
X33771534Y-11097567D01*
X33665467Y-11097567D01*
X33665467Y-11203633D01*
X33771534Y-11203633D01*
X33784234Y-9324034D02*
X33784234Y-9217967D01*
X33678167Y-9217967D01*
X33678167Y-9324034D01*
X33784234Y-9324034D01*
X34533534Y-11203633D02*
X34533534Y-11097567D01*
X34427467Y-11097567D01*
X34427467Y-11203633D01*
X34533534Y-11203633D01*
X34546234Y-9324034D02*
X34546234Y-9217967D01*
X34440167Y-9217967D01*
X34440167Y-9324034D01*
X34546234Y-9324034D01*
X36144434Y-9324034D02*
X36144434Y-9217967D01*
X36038367Y-9217967D01*
X36038367Y-9324034D01*
X36144434Y-9324034D01*
X36144434Y-11203633D02*
X36144434Y-11097567D01*
X36038367Y-11097567D01*
X36038367Y-11203633D01*
X36144434Y-11203633D01*
X36906434Y-9324034D02*
X36906434Y-9217967D01*
X36800367Y-9217967D01*
X36800367Y-9324034D01*
X36906434Y-9324034D01*
X36906434Y-11203633D02*
X36906434Y-11097567D01*
X36800367Y-11097567D01*
X36800367Y-11203633D01*
X36906434Y-11203633D01*
X38942434Y-9324034D02*
X38942434Y-9217967D01*
X38836367Y-9217967D01*
X38836367Y-9324034D01*
X38942434Y-9324034D01*
X38942434Y-11203633D02*
X38942434Y-11097567D01*
X38836367Y-11097567D01*
X38836367Y-11203633D01*
X38942434Y-11203633D01*
X39704434Y-9324034D02*
X39704434Y-9217967D01*
X39598367Y-9217967D01*
X39598367Y-9324034D01*
X39704434Y-9324034D01*
X39704434Y-11203633D02*
X39704434Y-11097567D01*
X39598367Y-11097567D01*
X39598367Y-11203633D01*
X39704434Y-11203633D01*
X2616200Y-9597300D02*
X2701200Y-9512300D01*
X2616200Y-9427300D01*
X2531200Y-9512300D01*
X2616200Y-9597300D01*
X2616300Y-12861200D02*
X2701300Y-12776200D01*
X2616300Y-12691200D01*
X2531300Y-12776200D01*
X2616300Y-12861200D01*
X3012200Y-9597300D02*
X3097200Y-9512300D01*
X3012200Y-9427300D01*
X2927200Y-9512300D01*
X3012200Y-9597300D01*
X3012300Y-12861200D02*
X3097300Y-12776200D01*
X3012300Y-12691200D01*
X2927300Y-12776200D01*
X3012300Y-12861200D01*
X3276600Y-15032900D02*
X3361600Y-14947900D01*
X3276600Y-14862900D01*
X3191600Y-14947900D01*
X3276600Y-15032900D01*
X3390900Y-7412900D02*
X3475900Y-7327900D01*
X3390900Y-7242900D01*
X3305900Y-7327900D01*
X3390900Y-7412900D01*
X3408200Y-9597300D02*
X3493200Y-9512300D01*
X3408200Y-9427300D01*
X3323200Y-9512300D01*
X3408200Y-9597300D01*
X3408300Y-12861200D02*
X3493300Y-12776200D01*
X3408300Y-12691200D01*
X3323300Y-12776200D01*
X3408300Y-12861200D01*
X3672600Y-15032900D02*
X3757600Y-14947900D01*
X3672600Y-14862900D01*
X3587600Y-14947900D01*
X3672600Y-15032900D01*
X3786900Y-7412900D02*
X3871900Y-7327900D01*
X3786900Y-7242900D01*
X3701900Y-7327900D01*
X3786900Y-7412900D01*
X3804200Y-9597300D02*
X3889200Y-9512300D01*
X3804200Y-9427300D01*
X3719200Y-9512300D01*
X3804200Y-9597300D01*
X3804300Y-12861200D02*
X3889300Y-12776200D01*
X3804300Y-12691200D01*
X3719300Y-12776200D01*
X3804300Y-12861200D01*
X4068600Y-15032900D02*
X4153600Y-14947900D01*
X4068600Y-14862900D01*
X3983600Y-14947900D01*
X4068600Y-15032900D01*
X4182900Y-7412900D02*
X4267900Y-7327900D01*
X4182900Y-7242900D01*
X4097900Y-7327900D01*
X4182900Y-7412900D01*
X4200200Y-9597300D02*
X4285200Y-9512300D01*
X4200200Y-9427300D01*
X4115200Y-9512300D01*
X4200200Y-9597300D01*
X4200300Y-12861200D02*
X4285300Y-12776200D01*
X4200300Y-12691200D01*
X4115300Y-12776200D01*
X4200300Y-12861200D01*
X4464600Y-15032900D02*
X4549600Y-14947900D01*
X4464600Y-14862900D01*
X4379600Y-14947900D01*
X4464600Y-15032900D01*
X4578900Y-7412900D02*
X4663900Y-7327900D01*
X4578900Y-7242900D01*
X4493900Y-7327900D01*
X4578900Y-7412900D01*
X4596200Y-9597300D02*
X4681200Y-9512300D01*
X4596200Y-9427300D01*
X4511200Y-9512300D01*
X4596200Y-9597300D01*
X4596300Y-12861200D02*
X4681300Y-12776200D01*
X4596300Y-12691200D01*
X4511300Y-12776200D01*
X4596300Y-12861200D01*
X4860600Y-15032900D02*
X4945600Y-14947900D01*
X4860600Y-14862900D01*
X4775600Y-14947900D01*
X4860600Y-15032900D01*
X4974900Y-7412900D02*
X5059900Y-7327900D01*
X4974900Y-7242900D01*
X4889900Y-7327900D01*
X4974900Y-7412900D01*
X4992200Y-9597300D02*
X5077200Y-9512300D01*
X4992200Y-9427300D01*
X4907200Y-9512300D01*
X4992200Y-9597300D01*
X4992300Y-12861200D02*
X5077300Y-12776200D01*
X4992300Y-12691200D01*
X4907300Y-12776200D01*
X4992300Y-12861200D01*
X5256600Y-15032900D02*
X5341600Y-14947900D01*
X5256600Y-14862900D01*
X5171600Y-14947900D01*
X5256600Y-15032900D01*
X5370900Y-7412900D02*
X5455900Y-7327900D01*
X5370900Y-7242900D01*
X5285900Y-7327900D01*
X5370900Y-7412900D01*
X5388200Y-9597300D02*
X5473200Y-9512300D01*
X5388200Y-9427300D01*
X5303200Y-9512300D01*
X5388200Y-9597300D01*
X5388300Y-12861200D02*
X5473300Y-12776200D01*
X5388300Y-12691200D01*
X5303300Y-12776200D01*
X5388300Y-12861200D01*
X5652600Y-15032900D02*
X5737600Y-14947900D01*
X5652600Y-14862900D01*
X5567600Y-14947900D01*
X5652600Y-15032900D01*
X5766900Y-7412900D02*
X5851900Y-7327900D01*
X5766900Y-7242900D01*
X5681900Y-7327900D01*
X5766900Y-7412900D01*
X5784200Y-9597300D02*
X5869200Y-9512300D01*
X5784200Y-9427300D01*
X5699200Y-9512300D01*
X5784200Y-9597300D01*
X5784300Y-12861200D02*
X5869300Y-12776200D01*
X5784300Y-12691200D01*
X5699300Y-12776200D01*
X5784300Y-12861200D01*
X6048600Y-15032900D02*
X6133600Y-14947900D01*
X6048600Y-14862900D01*
X5963600Y-14947900D01*
X6048600Y-15032900D01*
X6162900Y-7412900D02*
X6247900Y-7327900D01*
X6162900Y-7242900D01*
X6077900Y-7327900D01*
X6162900Y-7412900D01*
X6180200Y-9597300D02*
X6265200Y-9512300D01*
X6180200Y-9427300D01*
X6095200Y-9512300D01*
X6180200Y-9597300D01*
X6180300Y-12861200D02*
X6265300Y-12776200D01*
X6180300Y-12691200D01*
X6095300Y-12776200D01*
X6180300Y-12861200D01*
X6444600Y-15032900D02*
X6529600Y-14947900D01*
X6444600Y-14862900D01*
X6359600Y-14947900D01*
X6444600Y-15032900D01*
X6558900Y-7412900D02*
X6643900Y-7327900D01*
X6558900Y-7242900D01*
X6473900Y-7327900D01*
X6558900Y-7412900D01*
X6576300Y-12861200D02*
X6661300Y-12776200D01*
X6576300Y-12691200D01*
X6491300Y-12776200D01*
X6576300Y-12861200D01*
X6840600Y-15032900D02*
X6925600Y-14947900D01*
X6840600Y-14862900D01*
X6755600Y-14947900D01*
X6840600Y-15032900D01*
X6954900Y-7412900D02*
X7039900Y-7327900D01*
X6954900Y-7242900D01*
X6869900Y-7327900D01*
X6954900Y-7412900D01*
X6972300Y-12861200D02*
X7057300Y-12776200D01*
X6972300Y-12691200D01*
X6887300Y-12776200D01*
X6972300Y-12861200D01*
X7236600Y-15032900D02*
X7321600Y-14947900D01*
X7236600Y-14862900D01*
X7151600Y-14947900D01*
X7236600Y-15032900D01*
X7350900Y-7412900D02*
X7435900Y-7327900D01*
X7350900Y-7242900D01*
X7265900Y-7327900D01*
X7350900Y-7412900D01*
X7632600Y-15032900D02*
X7717600Y-14947900D01*
X7632600Y-14862900D01*
X7547600Y-14947900D01*
X7632600Y-15032900D01*
X7746900Y-7412900D02*
X7831900Y-7327900D01*
X7746900Y-7242900D01*
X7661900Y-7327900D01*
X7746900Y-7412900D01*
X8028600Y-15032900D02*
X8113600Y-14947900D01*
X8028600Y-14862900D01*
X7943600Y-14947900D01*
X8028600Y-15032900D01*
X8142900Y-7412900D02*
X8227900Y-7327900D01*
X8142900Y-7242900D01*
X8057900Y-7327900D01*
X8142900Y-7412900D01*
X8294850Y-9584600D02*
X8379850Y-9499600D01*
X8294850Y-9414600D01*
X8209850Y-9499600D01*
X8294850Y-9584600D01*
X8294850Y-13191400D02*
X8379850Y-13106400D01*
X8294850Y-13021400D01*
X8209850Y-13106400D01*
X8294850Y-13191400D01*
X8424600Y-15032900D02*
X8509600Y-14947900D01*
X8424600Y-14862900D01*
X8339600Y-14947900D01*
X8424600Y-15032900D01*
X8538900Y-7412900D02*
X8623900Y-7327900D01*
X8538900Y-7242900D01*
X8453900Y-7327900D01*
X8538900Y-7412900D01*
X8690850Y-9584600D02*
X8775850Y-9499600D01*
X8690850Y-9414600D01*
X8605850Y-9499600D01*
X8690850Y-9584600D01*
X8690850Y-13191400D02*
X8775850Y-13106400D01*
X8690850Y-13021400D01*
X8605850Y-13106400D01*
X8690850Y-13191400D01*
X8820600Y-15032900D02*
X8905600Y-14947900D01*
X8820600Y-14862900D01*
X8735600Y-14947900D01*
X8820600Y-15032900D01*
X8934900Y-7412900D02*
X9019900Y-7327900D01*
X8934900Y-7242900D01*
X8849900Y-7327900D01*
X8934900Y-7412900D01*
X9086850Y-9584600D02*
X9171850Y-9499600D01*
X9086850Y-9414600D01*
X9001850Y-9499600D01*
X9086850Y-9584600D01*
X9086850Y-13191400D02*
X9171850Y-13106400D01*
X9086850Y-13021400D01*
X9001850Y-13106400D01*
X9086850Y-13191400D01*
X9216600Y-15032900D02*
X9301600Y-14947900D01*
X9216600Y-14862900D01*
X9131600Y-14947900D01*
X9216600Y-15032900D01*
X9330900Y-7412900D02*
X9415900Y-7327900D01*
X9330900Y-7242900D01*
X9245900Y-7327900D01*
X9330900Y-7412900D01*
X9726900Y-7412900D02*
X9811900Y-7327900D01*
X9726900Y-7242900D01*
X9641900Y-7327900D01*
X9726900Y-7412900D01*
X10122900Y-7412900D02*
X10207900Y-7327900D01*
X10122900Y-7242900D01*
X10037900Y-7327900D01*
X10122900Y-7412900D01*
X10425700Y-15032900D02*
X10510700Y-14947900D01*
X10425700Y-14862900D01*
X10340700Y-14947900D01*
X10425700Y-15032900D01*
X10807700Y-7412900D02*
X10892700Y-7327900D01*
X10807700Y-7242900D01*
X10722700Y-7327900D01*
X10807700Y-7412900D01*
X10821700Y-15032900D02*
X10906700Y-14947900D01*
X10821700Y-14862900D01*
X10736700Y-14947900D01*
X10821700Y-15032900D01*
X11203700Y-7412900D02*
X11288700Y-7327900D01*
X11203700Y-7242900D01*
X11118700Y-7327900D01*
X11203700Y-7412900D01*
X11217700Y-15032900D02*
X11302700Y-14947900D01*
X11217700Y-14862900D01*
X11132700Y-14947900D01*
X11217700Y-15032900D01*
X11599700Y-7412900D02*
X11684700Y-7327900D01*
X11599700Y-7242900D01*
X11514700Y-7327900D01*
X11599700Y-7412900D01*
X11613700Y-15032900D02*
X11698700Y-14947900D01*
X11613700Y-14862900D01*
X11528700Y-14947900D01*
X11613700Y-15032900D01*
X12009700Y-15032900D02*
X12094700Y-14947900D01*
X12009700Y-14862900D01*
X11924700Y-14947900D01*
X12009700Y-15032900D01*
X12405700Y-15032900D02*
X12490700Y-14947900D01*
X12405700Y-14862900D01*
X12320700Y-14947900D01*
X12405700Y-15032900D01*
X12801700Y-15032900D02*
X12886700Y-14947900D01*
X12801700Y-14862900D01*
X12716700Y-14947900D01*
X12801700Y-15032900D01*
X12960450Y-12835800D02*
X13045450Y-12750800D01*
X12960450Y-12665800D01*
X12875450Y-12750800D01*
X12960450Y-12835800D01*
X13197700Y-15032900D02*
X13282700Y-14947900D01*
X13197700Y-14862900D01*
X13112700Y-14947900D01*
X13197700Y-15032900D01*
X13356450Y-12835800D02*
X13441450Y-12750800D01*
X13356450Y-12665800D01*
X13271450Y-12750800D01*
X13356450Y-12835800D01*
X13589000Y-7425600D02*
X13674000Y-7340600D01*
X13589000Y-7255600D01*
X13504000Y-7340600D01*
X13589000Y-7425600D01*
X13593700Y-15032900D02*
X13678700Y-14947900D01*
X13593700Y-14862900D01*
X13508700Y-14947900D01*
X13593700Y-15032900D01*
X13752450Y-10168800D02*
X13837450Y-10083800D01*
X13752450Y-9998800D01*
X13667450Y-10083800D01*
X13752450Y-10168800D01*
X13752450Y-12835800D02*
X13837450Y-12750800D01*
X13752450Y-12665800D01*
X13667450Y-12750800D01*
X13752450Y-12835800D01*
X13985000Y-7425600D02*
X14070000Y-7340600D01*
X13985000Y-7255600D01*
X13900000Y-7340600D01*
X13985000Y-7425600D01*
X13989700Y-15032900D02*
X14074700Y-14947900D01*
X13989700Y-14862900D01*
X13904700Y-14947900D01*
X13989700Y-15032900D01*
X14148450Y-10168800D02*
X14233450Y-10083800D01*
X14148450Y-9998800D01*
X14063450Y-10083800D01*
X14148450Y-10168800D01*
X14148450Y-12835800D02*
X14233450Y-12750800D01*
X14148450Y-12665800D01*
X14063450Y-12750800D01*
X14148450Y-12835800D01*
X14381000Y-7425600D02*
X14466000Y-7340600D01*
X14381000Y-7255600D01*
X14296000Y-7340600D01*
X14381000Y-7425600D01*
X14385700Y-15032900D02*
X14470700Y-14947900D01*
X14385700Y-14862900D01*
X14300700Y-14947900D01*
X14385700Y-15032900D01*
X14544450Y-10168800D02*
X14629450Y-10083800D01*
X14544450Y-9998800D01*
X14459450Y-10083800D01*
X14544450Y-10168800D01*
X14544450Y-12835800D02*
X14629450Y-12750800D01*
X14544450Y-12665800D01*
X14459450Y-12750800D01*
X14544450Y-12835800D01*
X14777000Y-7425600D02*
X14862000Y-7340600D01*
X14777000Y-7255600D01*
X14692000Y-7340600D01*
X14777000Y-7425600D01*
X14781700Y-15032900D02*
X14866700Y-14947900D01*
X14781700Y-14862900D01*
X14696700Y-14947900D01*
X14781700Y-15032900D01*
X14940450Y-10168800D02*
X15025450Y-10083800D01*
X14940450Y-9998800D01*
X14855450Y-10083800D01*
X14940450Y-10168800D01*
X14940450Y-12835800D02*
X15025450Y-12750800D01*
X14940450Y-12665800D01*
X14855450Y-12750800D01*
X14940450Y-12835800D01*
X15173000Y-7425600D02*
X15258000Y-7340600D01*
X15173000Y-7255600D01*
X15088000Y-7340600D01*
X15173000Y-7425600D01*
X15177700Y-15032900D02*
X15262700Y-14947900D01*
X15177700Y-14862900D01*
X15092700Y-14947900D01*
X15177700Y-15032900D01*
X15336450Y-10168800D02*
X15421450Y-10083800D01*
X15336450Y-9998800D01*
X15251450Y-10083800D01*
X15336450Y-10168800D01*
X15336450Y-12835800D02*
X15421450Y-12750800D01*
X15336450Y-12665800D01*
X15251450Y-12750800D01*
X15336450Y-12835800D01*
X15569000Y-7425600D02*
X15654000Y-7340600D01*
X15569000Y-7255600D01*
X15484000Y-7340600D01*
X15569000Y-7425600D01*
X15573700Y-15032900D02*
X15658700Y-14947900D01*
X15573700Y-14862900D01*
X15488700Y-14947900D01*
X15573700Y-15032900D01*
X15732450Y-10168800D02*
X15817450Y-10083800D01*
X15732450Y-9998800D01*
X15647450Y-10083800D01*
X15732450Y-10168800D01*
X15732450Y-12835800D02*
X15817450Y-12750800D01*
X15732450Y-12665800D01*
X15647450Y-12750800D01*
X15732450Y-12835800D01*
X15965000Y-7425600D02*
X16050000Y-7340600D01*
X15965000Y-7255600D01*
X15880000Y-7340600D01*
X15965000Y-7425600D01*
X15969700Y-15032900D02*
X16054700Y-14947900D01*
X15969700Y-14862900D01*
X15884700Y-14947900D01*
X15969700Y-15032900D01*
X16128450Y-10168800D02*
X16213450Y-10083800D01*
X16128450Y-9998800D01*
X16043450Y-10083800D01*
X16128450Y-10168800D01*
X16128450Y-12835800D02*
X16213450Y-12750800D01*
X16128450Y-12665800D01*
X16043450Y-12750800D01*
X16128450Y-12835800D01*
X16361000Y-7425600D02*
X16446000Y-7340600D01*
X16361000Y-7255600D01*
X16276000Y-7340600D01*
X16361000Y-7425600D01*
X16365700Y-15032900D02*
X16450700Y-14947900D01*
X16365700Y-14862900D01*
X16280700Y-14947900D01*
X16365700Y-15032900D01*
X16524450Y-10168800D02*
X16609450Y-10083800D01*
X16524450Y-9998800D01*
X16439450Y-10083800D01*
X16524450Y-10168800D01*
X16524450Y-12835800D02*
X16609450Y-12750800D01*
X16524450Y-12665800D01*
X16439450Y-12750800D01*
X16524450Y-12835800D01*
X16757000Y-7425600D02*
X16842000Y-7340600D01*
X16757000Y-7255600D01*
X16672000Y-7340600D01*
X16757000Y-7425600D01*
X16761700Y-15032900D02*
X16846700Y-14947900D01*
X16761700Y-14862900D01*
X16676700Y-14947900D01*
X16761700Y-15032900D01*
X16920450Y-10168800D02*
X17005450Y-10083800D01*
X16920450Y-9998800D01*
X16835450Y-10083800D01*
X16920450Y-10168800D01*
X16920450Y-12835800D02*
X17005450Y-12750800D01*
X16920450Y-12665800D01*
X16835450Y-12750800D01*
X16920450Y-12835800D01*
X17153000Y-7425600D02*
X17238000Y-7340600D01*
X17153000Y-7255600D01*
X17068000Y-7340600D01*
X17153000Y-7425600D01*
X17157700Y-15032900D02*
X17242700Y-14947900D01*
X17157700Y-14862900D01*
X17072700Y-14947900D01*
X17157700Y-15032900D01*
X17316450Y-10168800D02*
X17401450Y-10083800D01*
X17316450Y-9998800D01*
X17231450Y-10083800D01*
X17316450Y-10168800D01*
X17316450Y-12835800D02*
X17401450Y-12750800D01*
X17316450Y-12665800D01*
X17231450Y-12750800D01*
X17316450Y-12835800D01*
X17549000Y-7425600D02*
X17634000Y-7340600D01*
X17549000Y-7255600D01*
X17464000Y-7340600D01*
X17549000Y-7425600D01*
X17945000Y-7425600D02*
X18030000Y-7340600D01*
X17945000Y-7255600D01*
X17860000Y-7340600D01*
X17945000Y-7425600D01*
X18341000Y-7425600D02*
X18426000Y-7340600D01*
X18341000Y-7255600D01*
X18256000Y-7340600D01*
X18341000Y-7425600D01*
X18737000Y-7425600D02*
X18822000Y-7340600D01*
X18737000Y-7255600D01*
X18652000Y-7340600D01*
X18737000Y-7425600D01*
X19133000Y-7425600D02*
X19218000Y-7340600D01*
X19133000Y-7255600D01*
X19048000Y-7340600D01*
X19133000Y-7425600D01*
X19529000Y-7425600D02*
X19614000Y-7340600D01*
X19529000Y-7255600D01*
X19444000Y-7340600D01*
X19529000Y-7425600D01*
X19925000Y-7425600D02*
X20010000Y-7340600D01*
X19925000Y-7255600D01*
X19840000Y-7340600D01*
X19925000Y-7425600D01*
X20321000Y-7425600D02*
X20406000Y-7340600D01*
X20321000Y-7255600D01*
X20236000Y-7340600D01*
X20321000Y-7425600D01*
X20993100Y-12848500D02*
X21078100Y-12763500D01*
X20993100Y-12678500D01*
X20908100Y-12763500D01*
X20993100Y-12848500D01*
X20996700Y-15032900D02*
X21081700Y-14947900D01*
X20996700Y-14862900D01*
X20911700Y-14947900D01*
X20996700Y-15032900D01*
X21389100Y-12848500D02*
X21474100Y-12763500D01*
X21389100Y-12678500D01*
X21304100Y-12763500D01*
X21389100Y-12848500D01*
X21392700Y-15032900D02*
X21477700Y-14947900D01*
X21392700Y-14862900D01*
X21307700Y-14947900D01*
X21392700Y-15032900D01*
X21785100Y-12848500D02*
X21870100Y-12763500D01*
X21785100Y-12678500D01*
X21700100Y-12763500D01*
X21785100Y-12848500D01*
X21788700Y-15032900D02*
X21873700Y-14947900D01*
X21788700Y-14862900D01*
X21703700Y-14947900D01*
X21788700Y-15032900D01*
X22181100Y-12848500D02*
X22266100Y-12763500D01*
X22181100Y-12678500D01*
X22096100Y-12763500D01*
X22181100Y-12848500D01*
X22184700Y-15032900D02*
X22269700Y-14947900D01*
X22184700Y-14862900D01*
X22099700Y-14947900D01*
X22184700Y-15032900D01*
X22577100Y-12848500D02*
X22662100Y-12763500D01*
X22577100Y-12678500D01*
X22492100Y-12763500D01*
X22577100Y-12848500D01*
X22580700Y-15032900D02*
X22665700Y-14947900D01*
X22580700Y-14862900D01*
X22495700Y-14947900D01*
X22580700Y-15032900D01*
X22698500Y-7425600D02*
X22783500Y-7340600D01*
X22698500Y-7255600D01*
X22613500Y-7340600D01*
X22698500Y-7425600D01*
X22973100Y-12848500D02*
X23058100Y-12763500D01*
X22973100Y-12678500D01*
X22888100Y-12763500D01*
X22973100Y-12848500D01*
X22976700Y-15032900D02*
X23061700Y-14947900D01*
X22976700Y-14862900D01*
X22891700Y-14947900D01*
X22976700Y-15032900D01*
X23094500Y-7425600D02*
X23179500Y-7340600D01*
X23094500Y-7255600D01*
X23009500Y-7340600D01*
X23094500Y-7425600D01*
X23369100Y-12848500D02*
X23454100Y-12763500D01*
X23369100Y-12678500D01*
X23284100Y-12763500D01*
X23369100Y-12848500D01*
X23372700Y-15032900D02*
X23457700Y-14947900D01*
X23372700Y-14862900D01*
X23287700Y-14947900D01*
X23372700Y-15032900D01*
X23490500Y-7425600D02*
X23575500Y-7340600D01*
X23490500Y-7255600D01*
X23405500Y-7340600D01*
X23490500Y-7425600D01*
X23765100Y-12848500D02*
X23850100Y-12763500D01*
X23765100Y-12678500D01*
X23680100Y-12763500D01*
X23765100Y-12848500D01*
X23768700Y-15032900D02*
X23853700Y-14947900D01*
X23768700Y-14862900D01*
X23683700Y-14947900D01*
X23768700Y-15032900D01*
X23886500Y-7425600D02*
X23971500Y-7340600D01*
X23886500Y-7255600D01*
X23801500Y-7340600D01*
X23886500Y-7425600D01*
X24161100Y-12848500D02*
X24246100Y-12763500D01*
X24161100Y-12678500D01*
X24076100Y-12763500D01*
X24161100Y-12848500D01*
X24164700Y-15032900D02*
X24249700Y-14947900D01*
X24164700Y-14862900D01*
X24079700Y-14947900D01*
X24164700Y-15032900D01*
X24282500Y-7425600D02*
X24367500Y-7340600D01*
X24282500Y-7255600D01*
X24197500Y-7340600D01*
X24282500Y-7425600D01*
X24557100Y-12848500D02*
X24642100Y-12763500D01*
X24557100Y-12678500D01*
X24472100Y-12763500D01*
X24557100Y-12848500D01*
X24560700Y-15032900D02*
X24645700Y-14947900D01*
X24560700Y-14862900D01*
X24475700Y-14947900D01*
X24560700Y-15032900D01*
X24678500Y-7425600D02*
X24763500Y-7340600D01*
X24678500Y-7255600D01*
X24593500Y-7340600D01*
X24678500Y-7425600D01*
X24953100Y-12848500D02*
X25038100Y-12763500D01*
X24953100Y-12678500D01*
X24868100Y-12763500D01*
X24953100Y-12848500D01*
X24956700Y-15032900D02*
X25041700Y-14947900D01*
X24956700Y-14862900D01*
X24871700Y-14947900D01*
X24956700Y-15032900D01*
X25074500Y-7425600D02*
X25159500Y-7340600D01*
X25074500Y-7255600D01*
X24989500Y-7340600D01*
X25074500Y-7425600D01*
X25349100Y-12848500D02*
X25434100Y-12763500D01*
X25349100Y-12678500D01*
X25264100Y-12763500D01*
X25349100Y-12848500D01*
X25352700Y-15032900D02*
X25437700Y-14947900D01*
X25352700Y-14862900D01*
X25267700Y-14947900D01*
X25352700Y-15032900D01*
X25470500Y-7425600D02*
X25555500Y-7340600D01*
X25470500Y-7255600D01*
X25385500Y-7340600D01*
X25470500Y-7425600D01*
X25745100Y-12848500D02*
X25830100Y-12763500D01*
X25745100Y-12678500D01*
X25660100Y-12763500D01*
X25745100Y-12848500D01*
X25748700Y-15032900D02*
X25833700Y-14947900D01*
X25748700Y-14862900D01*
X25663700Y-14947900D01*
X25748700Y-15032900D01*
X25866500Y-7425600D02*
X25951500Y-7340600D01*
X25866500Y-7255600D01*
X25781500Y-7340600D01*
X25866500Y-7425600D01*
X26141100Y-12848500D02*
X26226100Y-12763500D01*
X26141100Y-12678500D01*
X26056100Y-12763500D01*
X26141100Y-12848500D01*
X26144700Y-15032900D02*
X26229700Y-14947900D01*
X26144700Y-14862900D01*
X26059700Y-14947900D01*
X26144700Y-15032900D01*
X26262500Y-7425600D02*
X26347500Y-7340600D01*
X26262500Y-7255600D01*
X26177500Y-7340600D01*
X26262500Y-7425600D01*
X26537100Y-12848500D02*
X26622100Y-12763500D01*
X26537100Y-12678500D01*
X26452100Y-12763500D01*
X26537100Y-12848500D01*
X26540700Y-15032900D02*
X26625700Y-14947900D01*
X26540700Y-14862900D01*
X26455700Y-14947900D01*
X26540700Y-15032900D01*
X26658500Y-7425600D02*
X26743500Y-7340600D01*
X26658500Y-7255600D01*
X26573500Y-7340600D01*
X26658500Y-7425600D01*
X26933100Y-12848500D02*
X27018100Y-12763500D01*
X26933100Y-12678500D01*
X26848100Y-12763500D01*
X26933100Y-12848500D01*
X26936700Y-15032900D02*
X27021700Y-14947900D01*
X26936700Y-14862900D01*
X26851700Y-14947900D01*
X26936700Y-15032900D01*
X27054500Y-7425600D02*
X27139500Y-7340600D01*
X27054500Y-7255600D01*
X26969500Y-7340600D01*
X27054500Y-7425600D01*
X27450500Y-7425600D02*
X27535500Y-7340600D01*
X27450500Y-7255600D01*
X27365500Y-7340600D01*
X27450500Y-7425600D01*
X27846500Y-7425600D02*
X27931500Y-7340600D01*
X27846500Y-7255600D01*
X27761500Y-7340600D01*
X27846500Y-7425600D01*
X28242500Y-7425600D02*
X28327500Y-7340600D01*
X28242500Y-7255600D01*
X28157500Y-7340600D01*
X28242500Y-7425600D01*
X28638500Y-7425600D02*
X28723500Y-7340600D01*
X28638500Y-7255600D01*
X28553500Y-7340600D01*
X28638500Y-7425600D01*
X28744800Y-15032900D02*
X28829800Y-14947900D01*
X28744800Y-14862900D01*
X28659800Y-14947900D01*
X28744800Y-15032900D01*
X29140800Y-15032900D02*
X29225800Y-14947900D01*
X29140800Y-14862900D01*
X29055800Y-14947900D01*
X29140800Y-15032900D01*
X29536800Y-15032900D02*
X29621800Y-14947900D01*
X29536800Y-14862900D01*
X29451800Y-14947900D01*
X29536800Y-15032900D01*
X29932800Y-15032900D02*
X30017800Y-14947900D01*
X29932800Y-14862900D01*
X29847800Y-14947900D01*
X29932800Y-15032900D01*
X30328800Y-15032900D02*
X30413800Y-14947900D01*
X30328800Y-14862900D01*
X30243800Y-14947900D01*
X30328800Y-15032900D01*
X30724800Y-15032900D02*
X30809800Y-14947900D01*
X30724800Y-14862900D01*
X30639800Y-14947900D01*
X30724800Y-15032900D01*
X31120800Y-15032900D02*
X31205800Y-14947900D01*
X31120800Y-14862900D01*
X31035800Y-14947900D01*
X31120800Y-15032900D01*
X31516800Y-15032900D02*
X31601800Y-14947900D01*
X31516800Y-14862900D01*
X31431800Y-14947900D01*
X31516800Y-15032900D01*
X31888600Y-12848500D02*
X31973600Y-12763500D01*
X31888600Y-12678500D01*
X31803600Y-12763500D01*
X31888600Y-12848500D01*
X31912800Y-15032900D02*
X31997800Y-14947900D01*
X31912800Y-14862900D01*
X31827800Y-14947900D01*
X31912800Y-15032900D01*
X32284600Y-12848500D02*
X32369600Y-12763500D01*
X32284600Y-12678500D01*
X32199600Y-12763500D01*
X32284600Y-12848500D01*
X32308800Y-15032900D02*
X32393800Y-14947900D01*
X32308800Y-14862900D01*
X32223800Y-14947900D01*
X32308800Y-15032900D01*
X32680600Y-12848500D02*
X32765600Y-12763500D01*
X32680600Y-12678500D01*
X32595600Y-12763500D01*
X32680600Y-12848500D01*
X33076600Y-12848500D02*
X33161600Y-12763500D01*
X33076600Y-12678500D01*
X32991600Y-12763500D01*
X33076600Y-12848500D01*
X33472600Y-12848500D02*
X33557600Y-12763500D01*
X33472600Y-12678500D01*
X33387600Y-12763500D01*
X33472600Y-12848500D01*
X33749800Y-15045600D02*
X33834800Y-14960600D01*
X33749800Y-14875600D01*
X33664800Y-14960600D01*
X33749800Y-15045600D01*
X33868600Y-12848500D02*
X33953600Y-12763500D01*
X33868600Y-12678500D01*
X33783600Y-12763500D01*
X33868600Y-12848500D01*
X34145800Y-15045600D02*
X34230800Y-14960600D01*
X34145800Y-14875600D01*
X34060800Y-14960600D01*
X34145800Y-15045600D01*
X34264600Y-12848500D02*
X34349600Y-12763500D01*
X34264600Y-12678500D01*
X34179600Y-12763500D01*
X34264600Y-12848500D01*
X34541800Y-15045600D02*
X34626800Y-14960600D01*
X34541800Y-14875600D01*
X34456800Y-14960600D01*
X34541800Y-15045600D01*
X34937800Y-15045600D02*
X35022800Y-14960600D01*
X34937800Y-14875600D01*
X34852800Y-14960600D01*
X34937800Y-15045600D01*
X34963100Y-7425600D02*
X35048100Y-7340600D01*
X34963100Y-7255600D01*
X34878100Y-7340600D01*
X34963100Y-7425600D01*
X35333800Y-15045600D02*
X35418800Y-14960600D01*
X35333800Y-14875600D01*
X35248800Y-14960600D01*
X35333800Y-15045600D01*
X35359100Y-7425600D02*
X35444100Y-7340600D01*
X35359100Y-7255600D01*
X35274100Y-7340600D01*
X35359100Y-7425600D01*
X35729800Y-15045600D02*
X35814800Y-14960600D01*
X35729800Y-14875600D01*
X35644800Y-14960600D01*
X35729800Y-15045600D01*
X35755100Y-7425600D02*
X35840100Y-7340600D01*
X35755100Y-7255600D01*
X35670100Y-7340600D01*
X35755100Y-7425600D01*
X35763200Y-12848500D02*
X35848200Y-12763500D01*
X35763200Y-12678500D01*
X35678200Y-12763500D01*
X35763200Y-12848500D01*
X36125800Y-15045600D02*
X36210800Y-14960600D01*
X36125800Y-14875600D01*
X36040800Y-14960600D01*
X36125800Y-15045600D01*
X36151100Y-7425600D02*
X36236100Y-7340600D01*
X36151100Y-7255600D01*
X36066100Y-7340600D01*
X36151100Y-7425600D01*
X36159200Y-12848500D02*
X36244200Y-12763500D01*
X36159200Y-12678500D01*
X36074200Y-12763500D01*
X36159200Y-12848500D01*
X36521800Y-15045600D02*
X36606800Y-14960600D01*
X36521800Y-14875600D01*
X36436800Y-14960600D01*
X36521800Y-15045600D01*
X36547100Y-7425600D02*
X36632100Y-7340600D01*
X36547100Y-7255600D01*
X36462100Y-7340600D01*
X36547100Y-7425600D01*
X36555200Y-12848500D02*
X36640200Y-12763500D01*
X36555200Y-12678500D01*
X36470200Y-12763500D01*
X36555200Y-12848500D01*
X36917800Y-15045600D02*
X37002800Y-14960600D01*
X36917800Y-14875600D01*
X36832800Y-14960600D01*
X36917800Y-15045600D01*
X36943100Y-7425600D02*
X37028100Y-7340600D01*
X36943100Y-7255600D01*
X36858100Y-7340600D01*
X36943100Y-7425600D01*
X36951200Y-12848500D02*
X37036200Y-12763500D01*
X36951200Y-12678500D01*
X36866200Y-12763500D01*
X36951200Y-12848500D01*
X37313800Y-15045600D02*
X37398800Y-14960600D01*
X37313800Y-14875600D01*
X37228800Y-14960600D01*
X37313800Y-15045600D01*
X37339100Y-7425600D02*
X37424100Y-7340600D01*
X37339100Y-7255600D01*
X37254100Y-7340600D01*
X37339100Y-7425600D01*
X37347200Y-12848500D02*
X37432200Y-12763500D01*
X37347200Y-12678500D01*
X37262200Y-12763500D01*
X37347200Y-12848500D01*
X37709800Y-15045600D02*
X37794800Y-14960600D01*
X37709800Y-14875600D01*
X37624800Y-14960600D01*
X37709800Y-15045600D01*
X37735100Y-7425600D02*
X37820100Y-7340600D01*
X37735100Y-7255600D01*
X37650100Y-7340600D01*
X37735100Y-7425600D01*
X37743200Y-12848500D02*
X37828200Y-12763500D01*
X37743200Y-12678500D01*
X37658200Y-12763500D01*
X37743200Y-12848500D01*
X38105800Y-15045600D02*
X38190800Y-14960600D01*
X38105800Y-14875600D01*
X38020800Y-14960600D01*
X38105800Y-15045600D01*
X38131100Y-7425600D02*
X38216100Y-7340600D01*
X38131100Y-7255600D01*
X38046100Y-7340600D01*
X38131100Y-7425600D01*
X38139200Y-12848500D02*
X38224200Y-12763500D01*
X38139200Y-12678500D01*
X38054200Y-12763500D01*
X38139200Y-12848500D01*
X38501800Y-15045600D02*
X38586800Y-14960600D01*
X38501800Y-14875600D01*
X38416800Y-14960600D01*
X38501800Y-15045600D01*
X38527100Y-7425600D02*
X38612100Y-7340600D01*
X38527100Y-7255600D01*
X38442100Y-7340600D01*
X38527100Y-7425600D01*
X38535200Y-12848500D02*
X38620200Y-12763500D01*
X38535200Y-12678500D01*
X38450200Y-12763500D01*
X38535200Y-12848500D01*
X38897800Y-15045600D02*
X38982800Y-14960600D01*
X38897800Y-14875600D01*
X38812800Y-14960600D01*
X38897800Y-15045600D01*
X38923100Y-7425600D02*
X39008100Y-7340600D01*
X38923100Y-7255600D01*
X38838100Y-7340600D01*
X38923100Y-7425600D01*
X38931200Y-12848500D02*
X39016200Y-12763500D01*
X38931200Y-12678500D01*
X38846200Y-12763500D01*
X38931200Y-12848500D01*
X39293800Y-15045600D02*
X39378800Y-14960600D01*
X39293800Y-14875600D01*
X39208800Y-14960600D01*
X39293800Y-15045600D01*
X39319100Y-7425600D02*
X39404100Y-7340600D01*
X39319100Y-7255600D01*
X39234100Y-7340600D01*
X39319100Y-7425600D01*
X39327200Y-12848500D02*
X39412200Y-12763500D01*
X39327200Y-12678500D01*
X39242200Y-12763500D01*
X39327200Y-12848500D01*
X40919400Y-9660800D02*
X41004400Y-9575800D01*
X40919400Y-9490800D01*
X40834400Y-9575800D01*
X40919400Y-9660800D01*
X40919400Y-10056800D02*
X41004400Y-9971800D01*
X40919400Y-9886800D01*
X40834400Y-9971800D01*
X40919400Y-10056800D01*
X40919400Y-10452800D02*
X41004400Y-10367800D01*
X40919400Y-10282800D01*
X40834400Y-10367800D01*
X40919400Y-10452800D01*
X40919400Y-10848800D02*
X41004400Y-10763800D01*
X40919400Y-10678800D01*
X40834400Y-10763800D01*
X40919400Y-10848800D01*
X40919400Y-11244800D02*
X41004400Y-11159800D01*
X40919400Y-11074800D01*
X40834400Y-11159800D01*
X40919400Y-11244800D01*
X40919400Y-11640800D02*
X41004400Y-11555800D01*
X40919400Y-11470800D01*
X40834400Y-11555800D01*
X40919400Y-11640800D01*
X40919400Y-12036800D02*
X41004400Y-11951800D01*
X40919400Y-11866800D01*
X40834400Y-11951800D01*
X40919400Y-12036800D01*
X40919400Y-12432800D02*
X41004400Y-12347800D01*
X40919400Y-12262800D01*
X40834400Y-12347800D01*
X40919400Y-12432800D01*
X40919400Y-12828800D02*
X41004400Y-12743800D01*
X40919400Y-12658800D01*
X40834400Y-12743800D01*
X40919400Y-12828800D01*
D12*
X1807928Y-16406714D02*
X1807928Y-16106714D01*
X1879357Y-16106714D01*
X1922214Y-16121000D01*
X1950786Y-16149571D01*
X1965071Y-16178143D01*
X1979357Y-16235286D01*
X1979357Y-16278143D01*
X1965071Y-16335286D01*
X1950786Y-16363857D01*
X1922214Y-16392429D01*
X1879357Y-16406714D01*
X1807928Y-16406714D01*
X2107928Y-16406714D02*
X2107928Y-16206714D01*
X2107928Y-16263857D02*
X2122214Y-16235286D01*
X2136500Y-16221000D01*
X2165071Y-16206714D01*
X2193643Y-16206714D01*
X2293643Y-16406714D02*
X2293643Y-16206714D01*
X2293643Y-16106714D02*
X2279357Y-16121000D01*
X2293643Y-16135286D01*
X2307928Y-16121000D01*
X2293643Y-16106714D01*
X2293643Y-16135286D01*
X2479357Y-16406714D02*
X2450786Y-16392429D01*
X2436500Y-16363857D01*
X2436500Y-16106714D01*
X2636500Y-16406714D02*
X2607928Y-16392429D01*
X2593643Y-16363857D01*
X2593643Y-16106714D01*
X2979357Y-16406714D02*
X2979357Y-16106714D01*
X3079357Y-16321000D01*
X3179357Y-16106714D01*
X3179357Y-16406714D01*
X3450786Y-16406714D02*
X3450786Y-16249571D01*
X3436500Y-16221000D01*
X3407928Y-16206714D01*
X3350786Y-16206714D01*
X3322214Y-16221000D01*
X3450786Y-16392429D02*
X3422214Y-16406714D01*
X3350786Y-16406714D01*
X3322214Y-16392429D01*
X3307928Y-16363857D01*
X3307928Y-16335286D01*
X3322214Y-16306714D01*
X3350786Y-16292429D01*
X3422214Y-16292429D01*
X3450786Y-16278143D01*
X3593643Y-16206714D02*
X3593643Y-16506714D01*
X3593643Y-16221000D02*
X3622214Y-16206714D01*
X3679357Y-16206714D01*
X3707928Y-16221000D01*
X3722214Y-16235286D01*
X3736500Y-16263857D01*
X3736500Y-16349571D01*
X3722214Y-16378143D01*
X3707928Y-16392429D01*
X3679357Y-16406714D01*
X3622214Y-16406714D01*
X3593643Y-16392429D01*
X3865071Y-16378143D02*
X3879357Y-16392429D01*
X3865071Y-16406714D01*
X3850786Y-16392429D01*
X3865071Y-16378143D01*
X3865071Y-16406714D01*
X3865071Y-16221000D02*
X3879357Y-16235286D01*
X3865071Y-16249571D01*
X3850786Y-16235286D01*
X3865071Y-16221000D01*
X3865071Y-16249571D01*
X1481500Y-16881000D02*
X1521500Y-16921000D01*
X1521500Y-16881000D02*
X1481500Y-16921000D01*
X1865071Y-16736714D02*
X1893643Y-16736714D01*
X1922214Y-16751000D01*
X1936500Y-16765286D01*
X1950786Y-16793857D01*
X1965071Y-16851000D01*
X1965071Y-16922429D01*
X1950786Y-16979572D01*
X1936500Y-17008143D01*
X1922214Y-17022429D01*
X1893643Y-17036714D01*
X1865071Y-17036714D01*
X1836500Y-17022429D01*
X1822214Y-17008143D01*
X1807928Y-16979572D01*
X1793643Y-16922429D01*
X1793643Y-16851000D01*
X1807928Y-16793857D01*
X1822214Y-16765286D01*
X1836500Y-16751000D01*
X1865071Y-16736714D01*
X2093643Y-17008143D02*
X2107928Y-17022429D01*
X2093643Y-17036714D01*
X2079357Y-17022429D01*
X2093643Y-17008143D01*
X2093643Y-17036714D01*
X2365071Y-16836714D02*
X2365071Y-17036714D01*
X2293643Y-16722429D02*
X2222214Y-16936714D01*
X2407928Y-16936714D01*
X2579357Y-16736714D02*
X2607928Y-16736714D01*
X2636500Y-16751000D01*
X2650786Y-16765286D01*
X2665071Y-16793857D01*
X2679357Y-16851000D01*
X2679357Y-16922429D01*
X2665071Y-16979572D01*
X2650786Y-17008143D01*
X2636500Y-17022429D01*
X2607928Y-17036714D01*
X2579357Y-17036714D01*
X2550786Y-17022429D01*
X2536500Y-17008143D01*
X2522214Y-16979572D01*
X2507928Y-16922429D01*
X2507928Y-16851000D01*
X2522214Y-16793857D01*
X2536500Y-16765286D01*
X2550786Y-16751000D01*
X2579357Y-16736714D01*
X2865071Y-16736714D02*
X2893643Y-16736714D01*
X2922214Y-16751000D01*
X2936500Y-16765286D01*
X2950786Y-16793857D01*
X2965071Y-16851000D01*
X2965071Y-16922429D01*
X2950786Y-16979572D01*
X2936500Y-17008143D01*
X2922214Y-17022429D01*
X2893643Y-17036714D01*
X2865071Y-17036714D01*
X2836500Y-17022429D01*
X2822214Y-17008143D01*
X2807928Y-16979572D01*
X2793643Y-16922429D01*
X2793643Y-16851000D01*
X2807928Y-16793857D01*
X2822214Y-16765286D01*
X2836500Y-16751000D01*
X2865071Y-16736714D01*
X3093643Y-17036714D02*
X3093643Y-16836714D01*
X3093643Y-16865286D02*
X3107928Y-16851000D01*
X3136500Y-16836714D01*
X3179357Y-16836714D01*
X3207928Y-16851000D01*
X3222214Y-16879572D01*
X3222214Y-17036714D01*
X3222214Y-16879572D02*
X3236500Y-16851000D01*
X3265071Y-16836714D01*
X3307928Y-16836714D01*
X3336500Y-16851000D01*
X3350786Y-16879572D01*
X3350786Y-17036714D01*
X3493643Y-17036714D02*
X3493643Y-16836714D01*
X3493643Y-16865286D02*
X3507928Y-16851000D01*
X3536500Y-16836714D01*
X3579357Y-16836714D01*
X3607928Y-16851000D01*
X3622214Y-16879572D01*
X3622214Y-17036714D01*
X3622214Y-16879572D02*
X3636500Y-16851000D01*
X3665071Y-16836714D01*
X3707928Y-16836714D01*
X3736500Y-16851000D01*
X3750786Y-16879572D01*
X3750786Y-17036714D01*
X4336500Y-16722429D02*
X4079357Y-17108143D01*
X4722214Y-16736714D02*
X4750786Y-16736714D01*
X4779357Y-16751000D01*
X4793643Y-16765286D01*
X4807928Y-16793857D01*
X4822214Y-16851000D01*
X4822214Y-16922429D01*
X4807928Y-16979572D01*
X4793643Y-17008143D01*
X4779357Y-17022429D01*
X4750786Y-17036714D01*
X4722214Y-17036714D01*
X4693643Y-17022429D01*
X4679357Y-17008143D01*
X4665071Y-16979572D01*
X4650786Y-16922429D01*
X4650786Y-16851000D01*
X4665071Y-16793857D01*
X4679357Y-16765286D01*
X4693643Y-16751000D01*
X4722214Y-16736714D01*
X4950786Y-17008143D02*
X4965071Y-17022429D01*
X4950786Y-17036714D01*
X4936500Y-17022429D01*
X4950786Y-17008143D01*
X4950786Y-17036714D01*
X5150786Y-16736714D02*
X5179357Y-16736714D01*
X5207928Y-16751000D01*
X5222214Y-16765286D01*
X5236500Y-16793857D01*
X5250786Y-16851000D01*
X5250786Y-16922429D01*
X5236500Y-16979572D01*
X5222214Y-17008143D01*
X5207928Y-17022429D01*
X5179357Y-17036714D01*
X5150786Y-17036714D01*
X5122214Y-17022429D01*
X5107928Y-17008143D01*
X5093643Y-16979572D01*
X5079357Y-16922429D01*
X5079357Y-16851000D01*
X5093643Y-16793857D01*
X5107928Y-16765286D01*
X5122214Y-16751000D01*
X5150786Y-16736714D01*
X5536500Y-17036714D02*
X5365071Y-17036714D01*
X5450786Y-17036714D02*
X5450786Y-16736714D01*
X5422214Y-16779572D01*
X5393643Y-16808143D01*
X5365071Y-16822429D01*
X5807928Y-16736714D02*
X5665071Y-16736714D01*
X5650786Y-16879572D01*
X5665071Y-16865286D01*
X5693643Y-16851000D01*
X5765071Y-16851000D01*
X5793643Y-16865286D01*
X5807928Y-16879572D01*
X5822214Y-16908143D01*
X5822214Y-16979572D01*
X5807928Y-17008143D01*
X5793643Y-17022429D01*
X5765071Y-17036714D01*
X5693643Y-17036714D01*
X5665071Y-17022429D01*
X5650786Y-17008143D01*
X5922214Y-16736714D02*
X6122214Y-16736714D01*
X5993643Y-17036714D01*
X6222214Y-16736714D02*
X6222214Y-16793857D01*
X6336500Y-16736714D02*
X6336500Y-16793857D01*
X6779357Y-17151000D02*
X6765071Y-17136714D01*
X6736500Y-17093857D01*
X6722214Y-17065286D01*
X6707928Y-17022429D01*
X6693643Y-16951000D01*
X6693643Y-16893857D01*
X6707928Y-16822429D01*
X6722214Y-16779572D01*
X6736500Y-16751000D01*
X6765071Y-16708143D01*
X6779357Y-16693857D01*
X7050786Y-17036714D02*
X6879357Y-17036714D01*
X6965071Y-17036714D02*
X6965071Y-16736714D01*
X6936500Y-16779572D01*
X6907928Y-16808143D01*
X6879357Y-16822429D01*
X7150786Y-16736714D02*
X7336500Y-16736714D01*
X7236500Y-16851000D01*
X7279357Y-16851000D01*
X7307928Y-16865286D01*
X7322214Y-16879572D01*
X7336500Y-16908143D01*
X7336500Y-16979572D01*
X7322214Y-17008143D01*
X7307928Y-17022429D01*
X7279357Y-17036714D01*
X7193643Y-17036714D01*
X7165071Y-17022429D01*
X7150786Y-17008143D01*
X7693643Y-17036714D02*
X7693643Y-16736714D01*
X7822214Y-17036714D02*
X7822214Y-16879572D01*
X7807928Y-16851000D01*
X7779357Y-16836714D01*
X7736500Y-16836714D01*
X7707928Y-16851000D01*
X7693643Y-16865286D01*
X8007928Y-17036714D02*
X7979357Y-17022429D01*
X7965071Y-17008143D01*
X7950786Y-16979572D01*
X7950786Y-16893857D01*
X7965071Y-16865286D01*
X7979357Y-16851000D01*
X8007928Y-16836714D01*
X8050786Y-16836714D01*
X8079357Y-16851000D01*
X8093643Y-16865286D01*
X8107928Y-16893857D01*
X8107928Y-16979572D01*
X8093643Y-17008143D01*
X8079357Y-17022429D01*
X8050786Y-17036714D01*
X8007928Y-17036714D01*
X8279357Y-17036714D02*
X8250786Y-17022429D01*
X8236500Y-16993857D01*
X8236500Y-16736714D01*
X8507928Y-17022429D02*
X8479357Y-17036714D01*
X8422214Y-17036714D01*
X8393643Y-17022429D01*
X8379357Y-16993857D01*
X8379357Y-16879572D01*
X8393643Y-16851000D01*
X8422214Y-16836714D01*
X8479357Y-16836714D01*
X8507928Y-16851000D01*
X8522214Y-16879572D01*
X8522214Y-16908143D01*
X8379357Y-16936714D01*
X8636500Y-17022429D02*
X8665071Y-17036714D01*
X8722214Y-17036714D01*
X8750786Y-17022429D01*
X8765071Y-16993857D01*
X8765071Y-16979572D01*
X8750786Y-16951000D01*
X8722214Y-16936714D01*
X8679357Y-16936714D01*
X8650786Y-16922429D01*
X8636500Y-16893857D01*
X8636500Y-16879572D01*
X8650786Y-16851000D01*
X8679357Y-16836714D01*
X8722214Y-16836714D01*
X8750786Y-16851000D01*
X8865071Y-17151000D02*
X8879357Y-17136714D01*
X8907928Y-17093857D01*
X8922214Y-17065286D01*
X8936500Y-17022429D01*
X8950786Y-16951000D01*
X8950786Y-16893857D01*
X8936500Y-16822429D01*
X8922214Y-16779572D01*
X8907928Y-16751000D01*
X8879357Y-16708143D01*
X8865071Y-16693857D01*
X1521500Y-17297000D02*
G75*
G03*
X1521500Y-17297000I-40000J0D01*
G01*
X1865071Y-17132714D02*
X1893643Y-17132714D01*
X1922214Y-17147000D01*
X1936500Y-17161286D01*
X1950786Y-17189857D01*
X1965071Y-17247000D01*
X1965071Y-17318429D01*
X1950786Y-17375572D01*
X1936500Y-17404143D01*
X1922214Y-17418429D01*
X1893643Y-17432714D01*
X1865071Y-17432714D01*
X1836500Y-17418429D01*
X1822214Y-17404143D01*
X1807928Y-17375572D01*
X1793643Y-17318429D01*
X1793643Y-17247000D01*
X1807928Y-17189857D01*
X1822214Y-17161286D01*
X1836500Y-17147000D01*
X1865071Y-17132714D01*
X2093643Y-17404143D02*
X2107928Y-17418429D01*
X2093643Y-17432714D01*
X2079357Y-17418429D01*
X2093643Y-17404143D01*
X2093643Y-17432714D01*
X2279357Y-17261286D02*
X2250786Y-17247000D01*
X2236500Y-17232714D01*
X2222214Y-17204143D01*
X2222214Y-17189857D01*
X2236500Y-17161286D01*
X2250786Y-17147000D01*
X2279357Y-17132714D01*
X2336500Y-17132714D01*
X2365071Y-17147000D01*
X2379357Y-17161286D01*
X2393643Y-17189857D01*
X2393643Y-17204143D01*
X2379357Y-17232714D01*
X2365071Y-17247000D01*
X2336500Y-17261286D01*
X2279357Y-17261286D01*
X2250786Y-17275572D01*
X2236500Y-17289857D01*
X2222214Y-17318429D01*
X2222214Y-17375572D01*
X2236500Y-17404143D01*
X2250786Y-17418429D01*
X2279357Y-17432714D01*
X2336500Y-17432714D01*
X2365071Y-17418429D01*
X2379357Y-17404143D01*
X2393643Y-17375572D01*
X2393643Y-17318429D01*
X2379357Y-17289857D01*
X2365071Y-17275572D01*
X2336500Y-17261286D01*
X2579357Y-17132714D02*
X2607928Y-17132714D01*
X2636500Y-17147000D01*
X2650786Y-17161286D01*
X2665071Y-17189857D01*
X2679357Y-17247000D01*
X2679357Y-17318429D01*
X2665071Y-17375572D01*
X2650786Y-17404143D01*
X2636500Y-17418429D01*
X2607928Y-17432714D01*
X2579357Y-17432714D01*
X2550786Y-17418429D01*
X2536500Y-17404143D01*
X2522214Y-17375572D01*
X2507928Y-17318429D01*
X2507928Y-17247000D01*
X2522214Y-17189857D01*
X2536500Y-17161286D01*
X2550786Y-17147000D01*
X2579357Y-17132714D01*
X2865071Y-17132714D02*
X2893643Y-17132714D01*
X2922214Y-17147000D01*
X2936500Y-17161286D01*
X2950786Y-17189857D01*
X2965071Y-17247000D01*
X2965071Y-17318429D01*
X2950786Y-17375572D01*
X2936500Y-17404143D01*
X2922214Y-17418429D01*
X2893643Y-17432714D01*
X2865071Y-17432714D01*
X2836500Y-17418429D01*
X2822214Y-17404143D01*
X2807928Y-17375572D01*
X2793643Y-17318429D01*
X2793643Y-17247000D01*
X2807928Y-17189857D01*
X2822214Y-17161286D01*
X2836500Y-17147000D01*
X2865071Y-17132714D01*
X3093643Y-17432714D02*
X3093643Y-17232714D01*
X3093643Y-17261286D02*
X3107928Y-17247000D01*
X3136500Y-17232714D01*
X3179357Y-17232714D01*
X3207928Y-17247000D01*
X3222214Y-17275572D01*
X3222214Y-17432714D01*
X3222214Y-17275572D02*
X3236500Y-17247000D01*
X3265071Y-17232714D01*
X3307928Y-17232714D01*
X3336500Y-17247000D01*
X3350786Y-17275572D01*
X3350786Y-17432714D01*
X3493643Y-17432714D02*
X3493643Y-17232714D01*
X3493643Y-17261286D02*
X3507928Y-17247000D01*
X3536500Y-17232714D01*
X3579357Y-17232714D01*
X3607928Y-17247000D01*
X3622214Y-17275572D01*
X3622214Y-17432714D01*
X3622214Y-17275572D02*
X3636500Y-17247000D01*
X3665071Y-17232714D01*
X3707928Y-17232714D01*
X3736500Y-17247000D01*
X3750786Y-17275572D01*
X3750786Y-17432714D01*
X4336500Y-17118429D02*
X4079357Y-17504143D01*
X4722214Y-17132714D02*
X4750786Y-17132714D01*
X4779357Y-17147000D01*
X4793643Y-17161286D01*
X4807928Y-17189857D01*
X4822214Y-17247000D01*
X4822214Y-17318429D01*
X4807928Y-17375572D01*
X4793643Y-17404143D01*
X4779357Y-17418429D01*
X4750786Y-17432714D01*
X4722214Y-17432714D01*
X4693643Y-17418429D01*
X4679357Y-17404143D01*
X4665071Y-17375572D01*
X4650786Y-17318429D01*
X4650786Y-17247000D01*
X4665071Y-17189857D01*
X4679357Y-17161286D01*
X4693643Y-17147000D01*
X4722214Y-17132714D01*
X4950786Y-17404143D02*
X4965071Y-17418429D01*
X4950786Y-17432714D01*
X4936500Y-17418429D01*
X4950786Y-17404143D01*
X4950786Y-17432714D01*
X5150786Y-17132714D02*
X5179357Y-17132714D01*
X5207928Y-17147000D01*
X5222214Y-17161286D01*
X5236500Y-17189857D01*
X5250786Y-17247000D01*
X5250786Y-17318429D01*
X5236500Y-17375572D01*
X5222214Y-17404143D01*
X5207928Y-17418429D01*
X5179357Y-17432714D01*
X5150786Y-17432714D01*
X5122214Y-17418429D01*
X5107928Y-17404143D01*
X5093643Y-17375572D01*
X5079357Y-17318429D01*
X5079357Y-17247000D01*
X5093643Y-17189857D01*
X5107928Y-17161286D01*
X5122214Y-17147000D01*
X5150786Y-17132714D01*
X5350786Y-17132714D02*
X5536500Y-17132714D01*
X5436500Y-17247000D01*
X5479357Y-17247000D01*
X5507928Y-17261286D01*
X5522214Y-17275572D01*
X5536500Y-17304143D01*
X5536500Y-17375572D01*
X5522214Y-17404143D01*
X5507928Y-17418429D01*
X5479357Y-17432714D01*
X5393643Y-17432714D01*
X5365071Y-17418429D01*
X5350786Y-17404143D01*
X5822214Y-17432714D02*
X5650786Y-17432714D01*
X5736500Y-17432714D02*
X5736500Y-17132714D01*
X5707928Y-17175572D01*
X5679357Y-17204143D01*
X5650786Y-17218429D01*
X6093643Y-17132714D02*
X5950786Y-17132714D01*
X5936500Y-17275572D01*
X5950786Y-17261286D01*
X5979357Y-17247000D01*
X6050786Y-17247000D01*
X6079357Y-17261286D01*
X6093643Y-17275572D01*
X6107928Y-17304143D01*
X6107928Y-17375572D01*
X6093643Y-17404143D01*
X6079357Y-17418429D01*
X6050786Y-17432714D01*
X5979357Y-17432714D01*
X5950786Y-17418429D01*
X5936500Y-17404143D01*
X6222214Y-17132714D02*
X6222214Y-17189857D01*
X6336500Y-17132714D02*
X6336500Y-17189857D01*
X6779357Y-17547000D02*
X6765071Y-17532714D01*
X6736500Y-17489857D01*
X6722214Y-17461286D01*
X6707928Y-17418429D01*
X6693643Y-17347000D01*
X6693643Y-17289857D01*
X6707928Y-17218429D01*
X6722214Y-17175572D01*
X6736500Y-17147000D01*
X6765071Y-17104143D01*
X6779357Y-17089857D01*
X7022214Y-17232714D02*
X7022214Y-17432714D01*
X6950786Y-17118429D02*
X6879357Y-17332714D01*
X7065071Y-17332714D01*
X7307928Y-17132714D02*
X7250786Y-17132714D01*
X7222214Y-17147000D01*
X7207928Y-17161286D01*
X7179357Y-17204143D01*
X7165071Y-17261286D01*
X7165071Y-17375572D01*
X7179357Y-17404143D01*
X7193643Y-17418429D01*
X7222214Y-17432714D01*
X7279357Y-17432714D01*
X7307928Y-17418429D01*
X7322214Y-17404143D01*
X7336500Y-17375572D01*
X7336500Y-17304143D01*
X7322214Y-17275572D01*
X7307928Y-17261286D01*
X7279357Y-17247000D01*
X7222214Y-17247000D01*
X7193643Y-17261286D01*
X7179357Y-17275572D01*
X7165071Y-17304143D01*
X7693643Y-17432714D02*
X7693643Y-17132714D01*
X7822214Y-17432714D02*
X7822214Y-17275572D01*
X7807928Y-17247000D01*
X7779357Y-17232714D01*
X7736500Y-17232714D01*
X7707928Y-17247000D01*
X7693643Y-17261286D01*
X8007928Y-17432714D02*
X7979357Y-17418429D01*
X7965071Y-17404143D01*
X7950786Y-17375572D01*
X7950786Y-17289857D01*
X7965071Y-17261286D01*
X7979357Y-17247000D01*
X8007928Y-17232714D01*
X8050786Y-17232714D01*
X8079357Y-17247000D01*
X8093643Y-17261286D01*
X8107928Y-17289857D01*
X8107928Y-17375572D01*
X8093643Y-17404143D01*
X8079357Y-17418429D01*
X8050786Y-17432714D01*
X8007928Y-17432714D01*
X8279357Y-17432714D02*
X8250786Y-17418429D01*
X8236500Y-17389857D01*
X8236500Y-17132714D01*
X8507928Y-17418429D02*
X8479357Y-17432714D01*
X8422214Y-17432714D01*
X8393643Y-17418429D01*
X8379357Y-17389857D01*
X8379357Y-17275572D01*
X8393643Y-17247000D01*
X8422214Y-17232714D01*
X8479357Y-17232714D01*
X8507928Y-17247000D01*
X8522214Y-17275572D01*
X8522214Y-17304143D01*
X8379357Y-17332714D01*
X8636500Y-17418429D02*
X8665071Y-17432714D01*
X8722214Y-17432714D01*
X8750786Y-17418429D01*
X8765071Y-17389857D01*
X8765071Y-17375572D01*
X8750786Y-17347000D01*
X8722214Y-17332714D01*
X8679357Y-17332714D01*
X8650786Y-17318429D01*
X8636500Y-17289857D01*
X8636500Y-17275572D01*
X8650786Y-17247000D01*
X8679357Y-17232714D01*
X8722214Y-17232714D01*
X8750786Y-17247000D01*
X8865071Y-17547000D02*
X8879357Y-17532714D01*
X8907928Y-17489857D01*
X8922214Y-17461286D01*
X8936500Y-17418429D01*
X8950786Y-17347000D01*
X8950786Y-17289857D01*
X8936500Y-17218429D01*
X8922214Y-17175572D01*
X8907928Y-17147000D01*
X8879357Y-17104143D01*
X8865071Y-17089857D01*
X1461500Y-17633000D02*
X1461500Y-17753000D01*
X1401500Y-17693000D02*
X1521500Y-17693000D01*
X1965071Y-17828714D02*
X1793643Y-17828714D01*
X1879357Y-17828714D02*
X1879357Y-17528714D01*
X1850786Y-17571572D01*
X1822214Y-17600143D01*
X1793643Y-17614429D01*
X2093643Y-17800143D02*
X2107928Y-17814429D01*
X2093643Y-17828714D01*
X2079357Y-17814429D01*
X2093643Y-17800143D01*
X2093643Y-17828714D01*
X2222214Y-17557286D02*
X2236500Y-17543000D01*
X2265071Y-17528714D01*
X2336500Y-17528714D01*
X2365071Y-17543000D01*
X2379357Y-17557286D01*
X2393643Y-17585857D01*
X2393643Y-17614429D01*
X2379357Y-17657286D01*
X2207928Y-17828714D01*
X2393643Y-17828714D01*
X2579357Y-17528714D02*
X2607928Y-17528714D01*
X2636500Y-17543000D01*
X2650786Y-17557286D01*
X2665071Y-17585857D01*
X2679357Y-17643000D01*
X2679357Y-17714429D01*
X2665071Y-17771572D01*
X2650786Y-17800143D01*
X2636500Y-17814429D01*
X2607928Y-17828714D01*
X2579357Y-17828714D01*
X2550786Y-17814429D01*
X2536500Y-17800143D01*
X2522214Y-17771572D01*
X2507928Y-17714429D01*
X2507928Y-17643000D01*
X2522214Y-17585857D01*
X2536500Y-17557286D01*
X2550786Y-17543000D01*
X2579357Y-17528714D01*
X2865071Y-17528714D02*
X2893643Y-17528714D01*
X2922214Y-17543000D01*
X2936500Y-17557286D01*
X2950786Y-17585857D01*
X2965071Y-17643000D01*
X2965071Y-17714429D01*
X2950786Y-17771572D01*
X2936500Y-17800143D01*
X2922214Y-17814429D01*
X2893643Y-17828714D01*
X2865071Y-17828714D01*
X2836500Y-17814429D01*
X2822214Y-17800143D01*
X2807928Y-17771572D01*
X2793643Y-17714429D01*
X2793643Y-17643000D01*
X2807928Y-17585857D01*
X2822214Y-17557286D01*
X2836500Y-17543000D01*
X2865071Y-17528714D01*
X3093643Y-17828714D02*
X3093643Y-17628714D01*
X3093643Y-17657286D02*
X3107928Y-17643000D01*
X3136500Y-17628714D01*
X3179357Y-17628714D01*
X3207928Y-17643000D01*
X3222214Y-17671572D01*
X3222214Y-17828714D01*
X3222214Y-17671572D02*
X3236500Y-17643000D01*
X3265071Y-17628714D01*
X3307928Y-17628714D01*
X3336500Y-17643000D01*
X3350786Y-17671572D01*
X3350786Y-17828714D01*
X3493643Y-17828714D02*
X3493643Y-17628714D01*
X3493643Y-17657286D02*
X3507928Y-17643000D01*
X3536500Y-17628714D01*
X3579357Y-17628714D01*
X3607928Y-17643000D01*
X3622214Y-17671572D01*
X3622214Y-17828714D01*
X3622214Y-17671572D02*
X3636500Y-17643000D01*
X3665071Y-17628714D01*
X3707928Y-17628714D01*
X3736500Y-17643000D01*
X3750786Y-17671572D01*
X3750786Y-17828714D01*
X4336500Y-17514429D02*
X4079357Y-17900143D01*
X4722214Y-17528714D02*
X4750786Y-17528714D01*
X4779357Y-17543000D01*
X4793643Y-17557286D01*
X4807928Y-17585857D01*
X4822214Y-17643000D01*
X4822214Y-17714429D01*
X4807928Y-17771572D01*
X4793643Y-17800143D01*
X4779357Y-17814429D01*
X4750786Y-17828714D01*
X4722214Y-17828714D01*
X4693643Y-17814429D01*
X4679357Y-17800143D01*
X4665071Y-17771572D01*
X4650786Y-17714429D01*
X4650786Y-17643000D01*
X4665071Y-17585857D01*
X4679357Y-17557286D01*
X4693643Y-17543000D01*
X4722214Y-17528714D01*
X4950786Y-17800143D02*
X4965071Y-17814429D01*
X4950786Y-17828714D01*
X4936500Y-17814429D01*
X4950786Y-17800143D01*
X4950786Y-17828714D01*
X5150786Y-17528714D02*
X5179357Y-17528714D01*
X5207928Y-17543000D01*
X5222214Y-17557286D01*
X5236500Y-17585857D01*
X5250786Y-17643000D01*
X5250786Y-17714429D01*
X5236500Y-17771572D01*
X5222214Y-17800143D01*
X5207928Y-17814429D01*
X5179357Y-17828714D01*
X5150786Y-17828714D01*
X5122214Y-17814429D01*
X5107928Y-17800143D01*
X5093643Y-17771572D01*
X5079357Y-17714429D01*
X5079357Y-17643000D01*
X5093643Y-17585857D01*
X5107928Y-17557286D01*
X5122214Y-17543000D01*
X5150786Y-17528714D01*
X5507928Y-17628714D02*
X5507928Y-17828714D01*
X5436500Y-17514429D02*
X5365071Y-17728714D01*
X5550786Y-17728714D01*
X5636500Y-17528714D02*
X5836500Y-17528714D01*
X5707928Y-17828714D01*
X5936500Y-17557286D02*
X5950786Y-17543000D01*
X5979357Y-17528714D01*
X6050786Y-17528714D01*
X6079357Y-17543000D01*
X6093643Y-17557286D01*
X6107928Y-17585857D01*
X6107928Y-17614429D01*
X6093643Y-17657286D01*
X5922214Y-17828714D01*
X6107928Y-17828714D01*
X6222214Y-17528714D02*
X6222214Y-17585857D01*
X6336500Y-17528714D02*
X6336500Y-17585857D01*
X6779357Y-17943000D02*
X6765071Y-17928714D01*
X6736500Y-17885857D01*
X6722214Y-17857286D01*
X6707928Y-17814429D01*
X6693643Y-17743000D01*
X6693643Y-17685857D01*
X6707928Y-17614429D01*
X6722214Y-17571572D01*
X6736500Y-17543000D01*
X6765071Y-17500143D01*
X6779357Y-17485857D01*
X6865071Y-17528714D02*
X7050786Y-17528714D01*
X6950786Y-17643000D01*
X6993643Y-17643000D01*
X7022214Y-17657286D01*
X7036500Y-17671572D01*
X7050786Y-17700143D01*
X7050786Y-17771572D01*
X7036500Y-17800143D01*
X7022214Y-17814429D01*
X6993643Y-17828714D01*
X6907928Y-17828714D01*
X6879357Y-17814429D01*
X6865071Y-17800143D01*
X7236500Y-17528714D02*
X7265071Y-17528714D01*
X7293643Y-17543000D01*
X7307928Y-17557286D01*
X7322214Y-17585857D01*
X7336500Y-17643000D01*
X7336500Y-17714429D01*
X7322214Y-17771572D01*
X7307928Y-17800143D01*
X7293643Y-17814429D01*
X7265071Y-17828714D01*
X7236500Y-17828714D01*
X7207928Y-17814429D01*
X7193643Y-17800143D01*
X7179357Y-17771572D01*
X7165071Y-17714429D01*
X7165071Y-17643000D01*
X7179357Y-17585857D01*
X7193643Y-17557286D01*
X7207928Y-17543000D01*
X7236500Y-17528714D01*
X7693643Y-17828714D02*
X7693643Y-17528714D01*
X7822214Y-17828714D02*
X7822214Y-17671572D01*
X7807928Y-17643000D01*
X7779357Y-17628714D01*
X7736500Y-17628714D01*
X7707928Y-17643000D01*
X7693643Y-17657286D01*
X8007928Y-17828714D02*
X7979357Y-17814429D01*
X7965071Y-17800143D01*
X7950786Y-17771572D01*
X7950786Y-17685857D01*
X7965071Y-17657286D01*
X7979357Y-17643000D01*
X8007928Y-17628714D01*
X8050786Y-17628714D01*
X8079357Y-17643000D01*
X8093643Y-17657286D01*
X8107928Y-17685857D01*
X8107928Y-17771572D01*
X8093643Y-17800143D01*
X8079357Y-17814429D01*
X8050786Y-17828714D01*
X8007928Y-17828714D01*
X8279357Y-17828714D02*
X8250786Y-17814429D01*
X8236500Y-17785857D01*
X8236500Y-17528714D01*
X8507928Y-17814429D02*
X8479357Y-17828714D01*
X8422214Y-17828714D01*
X8393643Y-17814429D01*
X8379357Y-17785857D01*
X8379357Y-17671572D01*
X8393643Y-17643000D01*
X8422214Y-17628714D01*
X8479357Y-17628714D01*
X8507928Y-17643000D01*
X8522214Y-17671572D01*
X8522214Y-17700143D01*
X8379357Y-17728714D01*
X8636500Y-17814429D02*
X8665071Y-17828714D01*
X8722214Y-17828714D01*
X8750786Y-17814429D01*
X8765071Y-17785857D01*
X8765071Y-17771572D01*
X8750786Y-17743000D01*
X8722214Y-17728714D01*
X8679357Y-17728714D01*
X8650786Y-17714429D01*
X8636500Y-17685857D01*
X8636500Y-17671572D01*
X8650786Y-17643000D01*
X8679357Y-17628714D01*
X8722214Y-17628714D01*
X8750786Y-17643000D01*
X8865071Y-17943000D02*
X8879357Y-17928714D01*
X8907928Y-17885857D01*
X8922214Y-17857286D01*
X8936500Y-17814429D01*
X8950786Y-17743000D01*
X8950786Y-17685857D01*
X8936500Y-17614429D01*
X8922214Y-17571572D01*
X8907928Y-17543000D01*
X8879357Y-17500143D01*
X8865071Y-17485857D01*
X1499533Y-18142034D02*
X1499533Y-18035967D01*
X1393466Y-18035967D01*
X1393466Y-18142034D01*
X1499533Y-18142034D01*
X1965071Y-18224714D02*
X1793643Y-18224714D01*
X1879357Y-18224714D02*
X1879357Y-17924714D01*
X1850786Y-17967572D01*
X1822214Y-17996143D01*
X1793643Y-18010429D01*
X2093643Y-18196143D02*
X2107928Y-18210429D01*
X2093643Y-18224714D01*
X2079357Y-18210429D01*
X2093643Y-18196143D01*
X2093643Y-18224714D01*
X2379357Y-17924714D02*
X2236500Y-17924714D01*
X2222214Y-18067572D01*
X2236500Y-18053286D01*
X2265071Y-18039000D01*
X2336500Y-18039000D01*
X2365071Y-18053286D01*
X2379357Y-18067572D01*
X2393643Y-18096143D01*
X2393643Y-18167572D01*
X2379357Y-18196143D01*
X2365071Y-18210429D01*
X2336500Y-18224714D01*
X2265071Y-18224714D01*
X2236500Y-18210429D01*
X2222214Y-18196143D01*
X2579357Y-17924714D02*
X2607928Y-17924714D01*
X2636500Y-17939000D01*
X2650786Y-17953286D01*
X2665071Y-17981857D01*
X2679357Y-18039000D01*
X2679357Y-18110429D01*
X2665071Y-18167572D01*
X2650786Y-18196143D01*
X2636500Y-18210429D01*
X2607928Y-18224714D01*
X2579357Y-18224714D01*
X2550786Y-18210429D01*
X2536500Y-18196143D01*
X2522214Y-18167572D01*
X2507928Y-18110429D01*
X2507928Y-18039000D01*
X2522214Y-17981857D01*
X2536500Y-17953286D01*
X2550786Y-17939000D01*
X2579357Y-17924714D01*
X2865071Y-17924714D02*
X2893643Y-17924714D01*
X2922214Y-17939000D01*
X2936500Y-17953286D01*
X2950786Y-17981857D01*
X2965071Y-18039000D01*
X2965071Y-18110429D01*
X2950786Y-18167572D01*
X2936500Y-18196143D01*
X2922214Y-18210429D01*
X2893643Y-18224714D01*
X2865071Y-18224714D01*
X2836500Y-18210429D01*
X2822214Y-18196143D01*
X2807928Y-18167572D01*
X2793643Y-18110429D01*
X2793643Y-18039000D01*
X2807928Y-17981857D01*
X2822214Y-17953286D01*
X2836500Y-17939000D01*
X2865071Y-17924714D01*
X3093643Y-18224714D02*
X3093643Y-18024714D01*
X3093643Y-18053286D02*
X3107928Y-18039000D01*
X3136500Y-18024714D01*
X3179357Y-18024714D01*
X3207928Y-18039000D01*
X3222214Y-18067572D01*
X3222214Y-18224714D01*
X3222214Y-18067572D02*
X3236500Y-18039000D01*
X3265071Y-18024714D01*
X3307928Y-18024714D01*
X3336500Y-18039000D01*
X3350786Y-18067572D01*
X3350786Y-18224714D01*
X3493643Y-18224714D02*
X3493643Y-18024714D01*
X3493643Y-18053286D02*
X3507928Y-18039000D01*
X3536500Y-18024714D01*
X3579357Y-18024714D01*
X3607928Y-18039000D01*
X3622214Y-18067572D01*
X3622214Y-18224714D01*
X3622214Y-18067572D02*
X3636500Y-18039000D01*
X3665071Y-18024714D01*
X3707928Y-18024714D01*
X3736500Y-18039000D01*
X3750786Y-18067572D01*
X3750786Y-18224714D01*
X4336500Y-17910429D02*
X4079357Y-18296143D01*
X4722214Y-17924714D02*
X4750786Y-17924714D01*
X4779357Y-17939000D01*
X4793643Y-17953286D01*
X4807928Y-17981857D01*
X4822214Y-18039000D01*
X4822214Y-18110429D01*
X4807928Y-18167572D01*
X4793643Y-18196143D01*
X4779357Y-18210429D01*
X4750786Y-18224714D01*
X4722214Y-18224714D01*
X4693643Y-18210429D01*
X4679357Y-18196143D01*
X4665071Y-18167572D01*
X4650786Y-18110429D01*
X4650786Y-18039000D01*
X4665071Y-17981857D01*
X4679357Y-17953286D01*
X4693643Y-17939000D01*
X4722214Y-17924714D01*
X4950786Y-18196143D02*
X4965071Y-18210429D01*
X4950786Y-18224714D01*
X4936500Y-18210429D01*
X4950786Y-18196143D01*
X4950786Y-18224714D01*
X5150786Y-17924714D02*
X5179357Y-17924714D01*
X5207928Y-17939000D01*
X5222214Y-17953286D01*
X5236500Y-17981857D01*
X5250786Y-18039000D01*
X5250786Y-18110429D01*
X5236500Y-18167572D01*
X5222214Y-18196143D01*
X5207928Y-18210429D01*
X5179357Y-18224714D01*
X5150786Y-18224714D01*
X5122214Y-18210429D01*
X5107928Y-18196143D01*
X5093643Y-18167572D01*
X5079357Y-18110429D01*
X5079357Y-18039000D01*
X5093643Y-17981857D01*
X5107928Y-17953286D01*
X5122214Y-17939000D01*
X5150786Y-17924714D01*
X5522214Y-17924714D02*
X5379357Y-17924714D01*
X5365071Y-18067572D01*
X5379357Y-18053286D01*
X5407928Y-18039000D01*
X5479357Y-18039000D01*
X5507928Y-18053286D01*
X5522214Y-18067572D01*
X5536500Y-18096143D01*
X5536500Y-18167572D01*
X5522214Y-18196143D01*
X5507928Y-18210429D01*
X5479357Y-18224714D01*
X5407928Y-18224714D01*
X5379357Y-18210429D01*
X5365071Y-18196143D01*
X5679357Y-18224714D02*
X5736500Y-18224714D01*
X5765071Y-18210429D01*
X5779357Y-18196143D01*
X5807928Y-18153286D01*
X5822214Y-18096143D01*
X5822214Y-17981857D01*
X5807928Y-17953286D01*
X5793643Y-17939000D01*
X5765071Y-17924714D01*
X5707928Y-17924714D01*
X5679357Y-17939000D01*
X5665071Y-17953286D01*
X5650786Y-17981857D01*
X5650786Y-18053286D01*
X5665071Y-18081857D01*
X5679357Y-18096143D01*
X5707928Y-18110429D01*
X5765071Y-18110429D01*
X5793643Y-18096143D01*
X5807928Y-18081857D01*
X5822214Y-18053286D01*
X6107928Y-18224714D02*
X5936500Y-18224714D01*
X6022214Y-18224714D02*
X6022214Y-17924714D01*
X5993643Y-17967572D01*
X5965071Y-17996143D01*
X5936500Y-18010429D01*
X6222214Y-17924714D02*
X6222214Y-17981857D01*
X6336500Y-17924714D02*
X6336500Y-17981857D01*
X6779357Y-18339000D02*
X6765071Y-18324714D01*
X6736500Y-18281857D01*
X6722214Y-18253286D01*
X6707928Y-18210429D01*
X6693643Y-18139000D01*
X6693643Y-18081857D01*
X6707928Y-18010429D01*
X6722214Y-17967572D01*
X6736500Y-17939000D01*
X6765071Y-17896143D01*
X6779357Y-17881857D01*
X7050786Y-18224714D02*
X6879357Y-18224714D01*
X6965071Y-18224714D02*
X6965071Y-17924714D01*
X6936500Y-17967572D01*
X6907928Y-17996143D01*
X6879357Y-18010429D01*
X7307928Y-17924714D02*
X7250786Y-17924714D01*
X7222214Y-17939000D01*
X7207928Y-17953286D01*
X7179357Y-17996143D01*
X7165071Y-18053286D01*
X7165071Y-18167572D01*
X7179357Y-18196143D01*
X7193643Y-18210429D01*
X7222214Y-18224714D01*
X7279357Y-18224714D01*
X7307928Y-18210429D01*
X7322214Y-18196143D01*
X7336500Y-18167572D01*
X7336500Y-18096143D01*
X7322214Y-18067572D01*
X7307928Y-18053286D01*
X7279357Y-18039000D01*
X7222214Y-18039000D01*
X7193643Y-18053286D01*
X7179357Y-18067572D01*
X7165071Y-18096143D01*
X7693643Y-18224714D02*
X7693643Y-17924714D01*
X7822214Y-18224714D02*
X7822214Y-18067572D01*
X7807928Y-18039000D01*
X7779357Y-18024714D01*
X7736500Y-18024714D01*
X7707928Y-18039000D01*
X7693643Y-18053286D01*
X8007928Y-18224714D02*
X7979357Y-18210429D01*
X7965071Y-18196143D01*
X7950786Y-18167572D01*
X7950786Y-18081857D01*
X7965071Y-18053286D01*
X7979357Y-18039000D01*
X8007928Y-18024714D01*
X8050786Y-18024714D01*
X8079357Y-18039000D01*
X8093643Y-18053286D01*
X8107928Y-18081857D01*
X8107928Y-18167572D01*
X8093643Y-18196143D01*
X8079357Y-18210429D01*
X8050786Y-18224714D01*
X8007928Y-18224714D01*
X8279357Y-18224714D02*
X8250786Y-18210429D01*
X8236500Y-18181857D01*
X8236500Y-17924714D01*
X8507928Y-18210429D02*
X8479357Y-18224714D01*
X8422214Y-18224714D01*
X8393643Y-18210429D01*
X8379357Y-18181857D01*
X8379357Y-18067572D01*
X8393643Y-18039000D01*
X8422214Y-18024714D01*
X8479357Y-18024714D01*
X8507928Y-18039000D01*
X8522214Y-18067572D01*
X8522214Y-18096143D01*
X8379357Y-18124714D01*
X8636500Y-18210429D02*
X8665071Y-18224714D01*
X8722214Y-18224714D01*
X8750786Y-18210429D01*
X8765071Y-18181857D01*
X8765071Y-18167572D01*
X8750786Y-18139000D01*
X8722214Y-18124714D01*
X8679357Y-18124714D01*
X8650786Y-18110429D01*
X8636500Y-18081857D01*
X8636500Y-18067572D01*
X8650786Y-18039000D01*
X8679357Y-18024714D01*
X8722214Y-18024714D01*
X8750786Y-18039000D01*
X8865071Y-18339000D02*
X8879357Y-18324714D01*
X8907928Y-18281857D01*
X8922214Y-18253286D01*
X8936500Y-18210429D01*
X8950786Y-18139000D01*
X8950786Y-18081857D01*
X8936500Y-18010429D01*
X8922214Y-17967572D01*
X8907928Y-17939000D01*
X8879357Y-17896143D01*
X8865071Y-17881857D01*
X1436500Y-18570000D02*
X1521500Y-18485000D01*
X1436500Y-18400000D01*
X1351500Y-18485000D01*
X1436500Y-18570000D01*
X1965071Y-18620714D02*
X1793643Y-18620714D01*
X1879357Y-18620714D02*
X1879357Y-18320714D01*
X1850786Y-18363572D01*
X1822214Y-18392143D01*
X1793643Y-18406429D01*
X2093643Y-18592143D02*
X2107928Y-18606429D01*
X2093643Y-18620714D01*
X2079357Y-18606429D01*
X2093643Y-18592143D01*
X2093643Y-18620714D01*
X2207928Y-18320714D02*
X2407928Y-18320714D01*
X2279357Y-18620714D01*
X2579357Y-18320714D02*
X2607928Y-18320714D01*
X2636500Y-18335000D01*
X2650786Y-18349286D01*
X2665071Y-18377857D01*
X2679357Y-18435000D01*
X2679357Y-18506429D01*
X2665071Y-18563572D01*
X2650786Y-18592143D01*
X2636500Y-18606429D01*
X2607928Y-18620714D01*
X2579357Y-18620714D01*
X2550786Y-18606429D01*
X2536500Y-18592143D01*
X2522214Y-18563572D01*
X2507928Y-18506429D01*
X2507928Y-18435000D01*
X2522214Y-18377857D01*
X2536500Y-18349286D01*
X2550786Y-18335000D01*
X2579357Y-18320714D01*
X2865071Y-18320714D02*
X2893643Y-18320714D01*
X2922214Y-18335000D01*
X2936500Y-18349286D01*
X2950786Y-18377857D01*
X2965071Y-18435000D01*
X2965071Y-18506429D01*
X2950786Y-18563572D01*
X2936500Y-18592143D01*
X2922214Y-18606429D01*
X2893643Y-18620714D01*
X2865071Y-18620714D01*
X2836500Y-18606429D01*
X2822214Y-18592143D01*
X2807928Y-18563572D01*
X2793643Y-18506429D01*
X2793643Y-18435000D01*
X2807928Y-18377857D01*
X2822214Y-18349286D01*
X2836500Y-18335000D01*
X2865071Y-18320714D01*
X3093643Y-18620714D02*
X3093643Y-18420714D01*
X3093643Y-18449286D02*
X3107928Y-18435000D01*
X3136500Y-18420714D01*
X3179357Y-18420714D01*
X3207928Y-18435000D01*
X3222214Y-18463572D01*
X3222214Y-18620714D01*
X3222214Y-18463572D02*
X3236500Y-18435000D01*
X3265071Y-18420714D01*
X3307928Y-18420714D01*
X3336500Y-18435000D01*
X3350786Y-18463572D01*
X3350786Y-18620714D01*
X3493643Y-18620714D02*
X3493643Y-18420714D01*
X3493643Y-18449286D02*
X3507928Y-18435000D01*
X3536500Y-18420714D01*
X3579357Y-18420714D01*
X3607928Y-18435000D01*
X3622214Y-18463572D01*
X3622214Y-18620714D01*
X3622214Y-18463572D02*
X3636500Y-18435000D01*
X3665071Y-18420714D01*
X3707928Y-18420714D01*
X3736500Y-18435000D01*
X3750786Y-18463572D01*
X3750786Y-18620714D01*
X4336500Y-18306429D02*
X4079357Y-18692143D01*
X4722214Y-18320714D02*
X4750786Y-18320714D01*
X4779357Y-18335000D01*
X4793643Y-18349286D01*
X4807928Y-18377857D01*
X4822214Y-18435000D01*
X4822214Y-18506429D01*
X4807928Y-18563572D01*
X4793643Y-18592143D01*
X4779357Y-18606429D01*
X4750786Y-18620714D01*
X4722214Y-18620714D01*
X4693643Y-18606429D01*
X4679357Y-18592143D01*
X4665071Y-18563572D01*
X4650786Y-18506429D01*
X4650786Y-18435000D01*
X4665071Y-18377857D01*
X4679357Y-18349286D01*
X4693643Y-18335000D01*
X4722214Y-18320714D01*
X4950786Y-18592143D02*
X4965071Y-18606429D01*
X4950786Y-18620714D01*
X4936500Y-18606429D01*
X4950786Y-18592143D01*
X4950786Y-18620714D01*
X5150786Y-18320714D02*
X5179357Y-18320714D01*
X5207928Y-18335000D01*
X5222214Y-18349286D01*
X5236500Y-18377857D01*
X5250786Y-18435000D01*
X5250786Y-18506429D01*
X5236500Y-18563572D01*
X5222214Y-18592143D01*
X5207928Y-18606429D01*
X5179357Y-18620714D01*
X5150786Y-18620714D01*
X5122214Y-18606429D01*
X5107928Y-18592143D01*
X5093643Y-18563572D01*
X5079357Y-18506429D01*
X5079357Y-18435000D01*
X5093643Y-18377857D01*
X5107928Y-18349286D01*
X5122214Y-18335000D01*
X5150786Y-18320714D01*
X5507928Y-18320714D02*
X5450786Y-18320714D01*
X5422214Y-18335000D01*
X5407928Y-18349286D01*
X5379357Y-18392143D01*
X5365071Y-18449286D01*
X5365071Y-18563572D01*
X5379357Y-18592143D01*
X5393643Y-18606429D01*
X5422214Y-18620714D01*
X5479357Y-18620714D01*
X5507928Y-18606429D01*
X5522214Y-18592143D01*
X5536500Y-18563572D01*
X5536500Y-18492143D01*
X5522214Y-18463572D01*
X5507928Y-18449286D01*
X5479357Y-18435000D01*
X5422214Y-18435000D01*
X5393643Y-18449286D01*
X5379357Y-18463572D01*
X5365071Y-18492143D01*
X5793643Y-18320714D02*
X5736500Y-18320714D01*
X5707928Y-18335000D01*
X5693643Y-18349286D01*
X5665071Y-18392143D01*
X5650786Y-18449286D01*
X5650786Y-18563572D01*
X5665071Y-18592143D01*
X5679357Y-18606429D01*
X5707928Y-18620714D01*
X5765071Y-18620714D01*
X5793643Y-18606429D01*
X5807928Y-18592143D01*
X5822214Y-18563572D01*
X5822214Y-18492143D01*
X5807928Y-18463572D01*
X5793643Y-18449286D01*
X5765071Y-18435000D01*
X5707928Y-18435000D01*
X5679357Y-18449286D01*
X5665071Y-18463572D01*
X5650786Y-18492143D01*
X5965071Y-18620714D02*
X6022214Y-18620714D01*
X6050786Y-18606429D01*
X6065071Y-18592143D01*
X6093643Y-18549286D01*
X6107928Y-18492143D01*
X6107928Y-18377857D01*
X6093643Y-18349286D01*
X6079357Y-18335000D01*
X6050786Y-18320714D01*
X5993643Y-18320714D01*
X5965071Y-18335000D01*
X5950786Y-18349286D01*
X5936500Y-18377857D01*
X5936500Y-18449286D01*
X5950786Y-18477857D01*
X5965071Y-18492143D01*
X5993643Y-18506429D01*
X6050786Y-18506429D01*
X6079357Y-18492143D01*
X6093643Y-18477857D01*
X6107928Y-18449286D01*
X6222214Y-18320714D02*
X6222214Y-18377857D01*
X6336500Y-18320714D02*
X6336500Y-18377857D01*
X6779357Y-18735000D02*
X6765071Y-18720714D01*
X6736500Y-18677857D01*
X6722214Y-18649286D01*
X6707928Y-18606429D01*
X6693643Y-18535000D01*
X6693643Y-18477857D01*
X6707928Y-18406429D01*
X6722214Y-18363572D01*
X6736500Y-18335000D01*
X6765071Y-18292143D01*
X6779357Y-18277857D01*
X6879357Y-18349286D02*
X6893643Y-18335000D01*
X6922214Y-18320714D01*
X6993643Y-18320714D01*
X7022214Y-18335000D01*
X7036500Y-18349286D01*
X7050786Y-18377857D01*
X7050786Y-18406429D01*
X7036500Y-18449286D01*
X6865071Y-18620714D01*
X7050786Y-18620714D01*
X7150786Y-18320714D02*
X7336500Y-18320714D01*
X7236500Y-18435000D01*
X7279357Y-18435000D01*
X7307928Y-18449286D01*
X7322214Y-18463572D01*
X7336500Y-18492143D01*
X7336500Y-18563572D01*
X7322214Y-18592143D01*
X7307928Y-18606429D01*
X7279357Y-18620714D01*
X7193643Y-18620714D01*
X7165071Y-18606429D01*
X7150786Y-18592143D01*
X7593643Y-18420714D02*
X7593643Y-18620714D01*
X7522214Y-18306429D02*
X7450786Y-18520714D01*
X7636500Y-18520714D01*
X7979357Y-18620714D02*
X7979357Y-18320714D01*
X8107928Y-18620714D02*
X8107928Y-18463572D01*
X8093643Y-18435000D01*
X8065071Y-18420714D01*
X8022214Y-18420714D01*
X7993643Y-18435000D01*
X7979357Y-18449286D01*
X8293643Y-18620714D02*
X8265071Y-18606429D01*
X8250786Y-18592143D01*
X8236500Y-18563572D01*
X8236500Y-18477857D01*
X8250786Y-18449286D01*
X8265071Y-18435000D01*
X8293643Y-18420714D01*
X8336500Y-18420714D01*
X8365071Y-18435000D01*
X8379357Y-18449286D01*
X8393643Y-18477857D01*
X8393643Y-18563572D01*
X8379357Y-18592143D01*
X8365071Y-18606429D01*
X8336500Y-18620714D01*
X8293643Y-18620714D01*
X8565071Y-18620714D02*
X8536500Y-18606429D01*
X8522214Y-18577857D01*
X8522214Y-18320714D01*
X8793643Y-18606429D02*
X8765071Y-18620714D01*
X8707928Y-18620714D01*
X8679357Y-18606429D01*
X8665071Y-18577857D01*
X8665071Y-18463572D01*
X8679357Y-18435000D01*
X8707928Y-18420714D01*
X8765071Y-18420714D01*
X8793643Y-18435000D01*
X8807928Y-18463572D01*
X8807928Y-18492143D01*
X8665071Y-18520714D01*
X8922214Y-18606429D02*
X8950786Y-18620714D01*
X9007928Y-18620714D01*
X9036500Y-18606429D01*
X9050786Y-18577857D01*
X9050786Y-18563572D01*
X9036500Y-18535000D01*
X9007928Y-18520714D01*
X8965071Y-18520714D01*
X8936500Y-18506429D01*
X8922214Y-18477857D01*
X8922214Y-18463572D01*
X8936500Y-18435000D01*
X8965071Y-18420714D01*
X9007928Y-18420714D01*
X9036500Y-18435000D01*
X9150786Y-18735000D02*
X9165071Y-18720714D01*
X9193643Y-18677857D01*
X9207928Y-18649286D01*
X9222214Y-18606429D01*
X9236500Y-18535000D01*
X9236500Y-18477857D01*
X9222214Y-18406429D01*
X9207928Y-18363572D01*
X9193643Y-18335000D01*
X9165071Y-18292143D01*
X9150786Y-18277857D01*
M02*
