M48
; DRILL file {KiCad 5.1.12-84ad8e8a86~92~ubuntu20.04.1} date Thu 17 Mar 2022 08:21:52 AM
; FORMAT={-:-/ absolute / metric / decimal}
; #@! TF.CreationDate,2022-03-17T08:21:52-04:00
; #@! TF.GenerationSoftware,Kicad,Pcbnew,5.1.12-84ad8e8a86~92~ubuntu20.04.1
; #@! TF.FileFunction,Plated,1,2,PTH
FMAT,2
METRIC
T1C0.400
T2C0.800
T3C1.200
T4C1.500
T5C1.700
%
G90
G05
T1
X65.722Y-101.028
X81.28Y-137.986
X102.171Y-142.367
X104.965Y-108.013
X125.857Y-116.967
X308.356Y-82.931
X308.673Y-127.508
X309.562Y-87.249
X324.866Y-91.63
X328.295Y-107.823
X334.409Y-103.678
X367.411Y-78.676
X367.411Y-78.676
T2
X83.629Y-116.332
X83.629Y-118.872
X83.629Y-121.412
X83.693Y-105.029
X83.693Y-107.569
X83.693Y-110.109
X91.249Y-116.332
X91.249Y-118.872
X91.249Y-121.412
X91.313Y-105.029
X91.313Y-107.569
X91.313Y-110.109
X101.6Y-86.995
X101.6Y-89.535
X101.6Y-92.075
X109.22Y-86.995
X109.22Y-89.535
X109.22Y-92.075
X126.428Y-93.091
X126.428Y-105.791
X131.636Y-93.091
X131.636Y-105.791
X183.261Y-102.25
X183.261Y-118.73
X193.548Y-127.396
X193.548Y-143.876
X199.136Y-96.662
X199.136Y-113.142
X210.312Y-96.662
X210.312Y-113.142
X221.488Y-96.662
X221.488Y-113.142
X233.045Y-96.662
X233.045Y-113.142
X244.602Y-96.662
X244.602Y-113.142
X256.032Y-96.662
X256.032Y-113.142
X267.081Y-96.662
X267.081Y-113.142
X278.003Y-96.662
X278.003Y-113.142
X288.925Y-96.662
X288.925Y-113.142
X299.974Y-96.662
X299.974Y-113.142
T3
X100.266Y-103.314
X100.266Y-133.794
X110.934Y-103.314
X110.934Y-133.794
X127.191Y-114.681
X157.671Y-114.681
X183.261Y-95.25
X183.261Y-125.73
X193.548Y-120.396
X193.548Y-150.876
X199.136Y-89.662
X199.136Y-120.142
X210.312Y-89.662
X210.312Y-120.142
X221.488Y-89.662
X221.488Y-120.142
X233.045Y-89.662
X233.045Y-120.142
X244.602Y-89.662
X244.602Y-120.142
X256.032Y-89.662
X256.032Y-120.142
X267.081Y-89.662
X267.081Y-120.142
X278.003Y-89.662
X278.003Y-120.142
X288.925Y-89.662
X288.925Y-120.142
X299.974Y-89.662
X299.974Y-120.142
T4
X309.205Y-111.506
X309.332Y-92.71
X316.825Y-111.506
X316.952Y-92.71
X337.185Y-111.506
X337.312Y-92.71
X344.805Y-111.506
X344.932Y-92.71
X360.914Y-92.71
X360.914Y-111.506
X368.534Y-92.71
X368.534Y-111.506
X388.894Y-92.71
X388.894Y-111.506
X396.514Y-92.71
X396.514Y-111.506
T5
X26.162Y-95.123
X26.163Y-127.762
X30.122Y-95.123
X30.123Y-127.762
X32.766Y-149.479
X33.909Y-73.279
X34.082Y-95.123
X34.083Y-127.762
X36.726Y-149.479
X37.869Y-73.279
X38.042Y-95.123
X38.043Y-127.762
X40.686Y-149.479
X41.829Y-73.279
X42.002Y-95.123
X42.003Y-127.762
X44.646Y-149.479
X45.789Y-73.279
X45.962Y-95.123
X45.963Y-127.762
X48.606Y-149.479
X49.749Y-73.279
X49.922Y-95.123
X49.923Y-127.762
X52.566Y-149.479
X53.709Y-73.279
X53.882Y-95.123
X53.883Y-127.762
X56.526Y-149.479
X57.669Y-73.279
X57.842Y-95.123
X57.843Y-127.762
X60.486Y-149.479
X61.629Y-73.279
X61.802Y-95.123
X61.803Y-127.762
X64.446Y-149.479
X65.589Y-73.279
X65.763Y-127.762
X68.406Y-149.479
X69.549Y-73.279
X69.723Y-127.762
X72.366Y-149.479
X73.509Y-73.279
X76.326Y-149.479
X77.469Y-73.279
X80.286Y-149.479
X81.429Y-73.279
X82.948Y-94.996
X82.948Y-131.064
X84.246Y-149.479
X85.389Y-73.279
X86.908Y-94.996
X86.908Y-131.064
X88.206Y-149.479
X89.349Y-73.279
X90.868Y-94.996
X90.868Y-131.064
X92.166Y-149.479
X93.309Y-73.279
X97.269Y-73.279
X101.229Y-73.279
X104.257Y-149.479
X108.077Y-73.279
X108.217Y-149.479
X112.037Y-73.279
X112.177Y-149.479
X115.997Y-73.279
X116.137Y-149.479
X120.097Y-149.479
X124.057Y-149.479
X128.017Y-149.479
X129.605Y-127.508
X131.977Y-149.479
X133.564Y-127.508
X135.89Y-73.406
X135.937Y-149.479
X137.524Y-100.838
X137.524Y-127.508
X139.85Y-73.406
X139.897Y-149.479
X141.484Y-100.838
X141.484Y-127.508
X143.81Y-73.406
X143.857Y-149.479
X145.445Y-100.838
X145.445Y-127.508
X147.77Y-73.406
X147.817Y-149.479
X149.404Y-100.838
X149.404Y-127.508
X151.73Y-73.406
X151.777Y-149.479
X153.364Y-100.838
X153.364Y-127.508
X155.69Y-73.406
X155.737Y-149.479
X157.325Y-100.838
X157.325Y-127.508
X159.65Y-73.406
X159.697Y-149.479
X161.284Y-100.838
X161.284Y-127.508
X163.61Y-73.406
X163.657Y-149.479
X165.244Y-100.838
X165.244Y-127.508
X167.57Y-73.406
X167.617Y-149.479
X169.204Y-100.838
X169.204Y-127.508
X171.53Y-73.406
X171.577Y-149.479
X173.165Y-100.838
X173.165Y-127.508
X175.49Y-73.406
X179.45Y-73.406
X183.41Y-73.406
X187.37Y-73.406
X191.33Y-73.406
X195.29Y-73.406
X199.25Y-73.406
X203.21Y-73.406
X209.931Y-127.635
X209.967Y-149.479
X213.891Y-127.635
X213.927Y-149.479
X217.851Y-127.635
X217.887Y-149.479
X221.811Y-127.635
X221.847Y-149.479
X225.771Y-127.635
X225.807Y-149.479
X226.985Y-73.406
X229.731Y-127.635
X229.767Y-149.479
X230.945Y-73.406
X233.691Y-127.635
X233.727Y-149.479
X234.905Y-73.406
X237.651Y-127.635
X237.687Y-149.479
X238.865Y-73.406
X241.611Y-127.635
X241.647Y-149.479
X242.825Y-73.406
X245.571Y-127.635
X245.607Y-149.479
X246.785Y-73.406
X249.531Y-127.635
X249.567Y-149.479
X250.745Y-73.406
X253.491Y-127.635
X253.527Y-149.479
X254.705Y-73.406
X257.451Y-127.635
X257.487Y-149.479
X258.665Y-73.406
X261.411Y-127.635
X261.447Y-149.479
X262.625Y-73.406
X265.371Y-127.635
X265.407Y-149.479
X266.585Y-73.406
X269.331Y-127.635
X269.367Y-149.479
X270.545Y-73.406
X274.505Y-73.406
X278.465Y-73.406
X282.425Y-73.406
X286.385Y-73.406
X287.448Y-149.479
X291.408Y-149.479
X295.368Y-149.479
X299.328Y-149.479
X303.288Y-149.479
X307.248Y-149.479
X311.208Y-149.479
X315.168Y-149.479
X318.886Y-127.635
X319.128Y-149.479
X322.846Y-127.635
X323.088Y-149.479
X326.806Y-127.635
X330.766Y-127.635
X334.726Y-127.635
X337.498Y-149.606
X338.686Y-127.635
X341.458Y-149.606
X342.646Y-127.635
X345.418Y-149.606
X349.378Y-149.606
X349.631Y-73.406
X353.338Y-149.606
X353.591Y-73.406
X357.298Y-149.606
X357.551Y-73.406
X357.632Y-127.635
X361.258Y-149.606
X361.511Y-73.406
X361.592Y-127.635
X365.218Y-149.606
X365.471Y-73.406
X365.552Y-127.635
X369.178Y-149.606
X369.431Y-73.406
X369.512Y-127.635
X373.138Y-149.606
X373.391Y-73.406
X373.472Y-127.635
X377.098Y-149.606
X377.351Y-73.406
X377.432Y-127.635
X381.058Y-149.606
X381.311Y-73.406
X381.392Y-127.635
X385.018Y-149.606
X385.271Y-73.406
X385.352Y-127.635
X388.978Y-149.606
X389.231Y-73.406
X389.312Y-127.635
X392.938Y-149.606
X393.191Y-73.406
X393.272Y-127.635
X409.194Y-95.758
X409.194Y-99.718
X409.194Y-103.678
X409.194Y-107.638
X409.194Y-111.598
X409.194Y-115.558
X409.194Y-119.518
X409.194Y-123.478
X409.194Y-127.438
T0
M30
