G04 #@! TF.GenerationSoftware,KiCad,Pcbnew,5.1.12-84ad8e8a86~92~ubuntu20.04.1*
G04 #@! TF.CreationDate,2022-03-17T08:21:24-04:00*
G04 #@! TF.ProjectId,sys11-interconnect,73797331-312d-4696-9e74-6572636f6e6e,1.1*
G04 #@! TF.SameCoordinates,Original*
G04 #@! TF.FileFunction,Copper,L2,Bot*
G04 #@! TF.FilePolarity,Positive*
%FSLAX46Y46*%
G04 Gerber Fmt 4.6, Leading zero omitted, Abs format (unit mm)*
G04 Created by KiCad (PCBNEW 5.1.12-84ad8e8a86~92~ubuntu20.04.1) date 2022-03-17 08:21:24*
%MOMM*%
%LPD*%
G01*
G04 APERTURE LIST*
G04 #@! TA.AperFunction,ComponentPad*
%ADD10O,2.400000X2.400000*%
G04 #@! TD*
G04 #@! TA.AperFunction,ComponentPad*
%ADD11C,2.400000*%
G04 #@! TD*
G04 #@! TA.AperFunction,ComponentPad*
%ADD12O,1.600000X1.600000*%
G04 #@! TD*
G04 #@! TA.AperFunction,ComponentPad*
%ADD13C,1.600000*%
G04 #@! TD*
G04 #@! TA.AperFunction,ComponentPad*
%ADD14C,2.300000*%
G04 #@! TD*
G04 #@! TA.AperFunction,ComponentPad*
%ADD15R,2.300000X2.300000*%
G04 #@! TD*
G04 #@! TA.AperFunction,ComponentPad*
%ADD16R,1.600000X1.600000*%
G04 #@! TD*
G04 #@! TA.AperFunction,ComponentPad*
%ADD17O,3.160000X4.100000*%
G04 #@! TD*
G04 #@! TA.AperFunction,ComponentPad*
%ADD18O,4.100000X3.160000*%
G04 #@! TD*
G04 #@! TA.AperFunction,ViaPad*
%ADD19C,0.800000*%
G04 #@! TD*
G04 #@! TA.AperFunction,Conductor*
%ADD20C,2.000000*%
G04 #@! TD*
G04 #@! TA.AperFunction,Conductor*
%ADD21C,0.500000*%
G04 #@! TD*
G04 APERTURE END LIST*
D10*
X127190500Y-114681000D03*
D11*
X157670500Y-114681000D03*
D12*
X299974000Y-96662000D03*
D13*
X299974000Y-113142000D03*
D10*
X299974000Y-89662000D03*
D11*
X299974000Y-120142000D03*
D12*
X288925000Y-96662000D03*
D13*
X288925000Y-113142000D03*
D10*
X288925000Y-89662000D03*
D11*
X288925000Y-120142000D03*
D12*
X278003000Y-96662000D03*
D13*
X278003000Y-113142000D03*
D10*
X278003000Y-89662000D03*
D11*
X278003000Y-120142000D03*
D12*
X267081000Y-96662000D03*
D13*
X267081000Y-113142000D03*
D10*
X267081000Y-89662000D03*
D11*
X267081000Y-120142000D03*
D12*
X256032000Y-96662000D03*
D13*
X256032000Y-113142000D03*
D10*
X256032000Y-89662000D03*
D11*
X256032000Y-120142000D03*
D12*
X244602000Y-96662000D03*
D13*
X244602000Y-113142000D03*
D10*
X244602000Y-89662000D03*
D11*
X244602000Y-120142000D03*
D12*
X233045000Y-96662000D03*
D13*
X233045000Y-113142000D03*
D10*
X233045000Y-89662000D03*
D11*
X233045000Y-120142000D03*
D12*
X221488000Y-96662000D03*
D13*
X221488000Y-113142000D03*
D10*
X221488000Y-89662000D03*
D11*
X221488000Y-120142000D03*
D12*
X210312000Y-96662000D03*
D13*
X210312000Y-113142000D03*
D10*
X210312000Y-89662000D03*
D11*
X210312000Y-120142000D03*
D12*
X199136000Y-96662000D03*
D13*
X199136000Y-113142000D03*
D10*
X199136000Y-89662000D03*
D11*
X199136000Y-120142000D03*
D12*
X183261000Y-102250000D03*
D13*
X183261000Y-118730000D03*
D10*
X183261000Y-95250000D03*
D11*
X183261000Y-125730000D03*
D12*
X193548000Y-127396000D03*
D13*
X193548000Y-143876000D03*
D10*
X193548000Y-120396000D03*
D11*
X193548000Y-150876000D03*
D14*
X337185000Y-111506000D03*
D15*
X316825000Y-111506000D03*
D14*
X344805000Y-111506000D03*
D15*
X309205000Y-111506000D03*
D14*
X368534000Y-111506000D03*
D15*
X388894000Y-111506000D03*
D14*
X360914000Y-111506000D03*
D15*
X396514000Y-111506000D03*
D14*
X316952000Y-92710000D03*
D15*
X337312000Y-92710000D03*
D14*
X309332000Y-92710000D03*
D15*
X344932000Y-92710000D03*
D14*
X368534000Y-92710000D03*
D15*
X388894000Y-92710000D03*
D14*
X360914000Y-92710000D03*
D15*
X396514000Y-92710000D03*
D12*
X126428500Y-105791000D03*
D13*
X126428500Y-93091000D03*
D12*
X131635500Y-105791000D03*
D13*
X131635500Y-93091000D03*
D12*
X91249500Y-116332000D03*
X83629500Y-121412000D03*
X91249500Y-118872000D03*
X83629500Y-118872000D03*
X91249500Y-121412000D03*
D16*
X83629500Y-116332000D03*
D12*
X91313000Y-105029000D03*
X83693000Y-110109000D03*
X91313000Y-107569000D03*
X83693000Y-107569000D03*
X91313000Y-110109000D03*
D16*
X83693000Y-105029000D03*
D12*
X109220000Y-86995000D03*
X101600000Y-92075000D03*
X109220000Y-89535000D03*
X101600000Y-89535000D03*
X109220000Y-92075000D03*
D16*
X101600000Y-86995000D03*
D10*
X110934500Y-103314500D03*
D11*
X110934500Y-133794500D03*
D10*
X100266500Y-103314500D03*
D11*
X100266500Y-133794500D03*
D17*
X137524500Y-100838000D03*
X141484500Y-100838000D03*
X145444500Y-100838000D03*
X149404500Y-100838000D03*
X153364500Y-100838000D03*
X157324500Y-100838000D03*
X161284500Y-100838000D03*
X165244500Y-100838000D03*
X169204500Y-100838000D03*
G04 #@! TA.AperFunction,ComponentPad*
G36*
G01*
X174744500Y-99038000D02*
X174744500Y-102638000D01*
G75*
G02*
X174494500Y-102888000I-250000J0D01*
G01*
X171834500Y-102888000D01*
G75*
G02*
X171584500Y-102638000I0J250000D01*
G01*
X171584500Y-99038000D01*
G75*
G02*
X171834500Y-98788000I250000J0D01*
G01*
X174494500Y-98788000D01*
G75*
G02*
X174744500Y-99038000I0J-250000D01*
G01*
G37*
G04 #@! TD.AperFunction*
X32766000Y-149479000D03*
X36726000Y-149479000D03*
X40686000Y-149479000D03*
X44646000Y-149479000D03*
X48606000Y-149479000D03*
X52566000Y-149479000D03*
X56526000Y-149479000D03*
X60486000Y-149479000D03*
X64446000Y-149479000D03*
X68406000Y-149479000D03*
X72366000Y-149479000D03*
X76326000Y-149479000D03*
X80286000Y-149479000D03*
X84246000Y-149479000D03*
X88206000Y-149479000D03*
G04 #@! TA.AperFunction,ComponentPad*
G36*
G01*
X93746000Y-147679000D02*
X93746000Y-151279000D01*
G75*
G02*
X93496000Y-151529000I-250000J0D01*
G01*
X90836000Y-151529000D01*
G75*
G02*
X90586000Y-151279000I0J250000D01*
G01*
X90586000Y-147679000D01*
G75*
G02*
X90836000Y-147429000I250000J0D01*
G01*
X93496000Y-147429000D01*
G75*
G02*
X93746000Y-147679000I0J-250000D01*
G01*
G37*
G04 #@! TD.AperFunction*
X26163000Y-127762000D03*
X30123000Y-127762000D03*
X34083000Y-127762000D03*
X38043000Y-127762000D03*
X42003000Y-127762000D03*
X45963000Y-127762000D03*
X49923000Y-127762000D03*
X53883000Y-127762000D03*
X57843000Y-127762000D03*
X61803000Y-127762000D03*
X65763000Y-127762000D03*
G04 #@! TA.AperFunction,ComponentPad*
G36*
G01*
X71303000Y-125962000D02*
X71303000Y-129562000D01*
G75*
G02*
X71053000Y-129812000I-250000J0D01*
G01*
X68393000Y-129812000D01*
G75*
G02*
X68143000Y-129562000I0J250000D01*
G01*
X68143000Y-125962000D01*
G75*
G02*
X68393000Y-125712000I250000J0D01*
G01*
X71053000Y-125712000D01*
G75*
G02*
X71303000Y-125962000I0J-250000D01*
G01*
G37*
G04 #@! TD.AperFunction*
X26162000Y-95123000D03*
X30122000Y-95123000D03*
X34082000Y-95123000D03*
X38042000Y-95123000D03*
X42002000Y-95123000D03*
X45962000Y-95123000D03*
X49922000Y-95123000D03*
X53882000Y-95123000D03*
X57842000Y-95123000D03*
G04 #@! TA.AperFunction,ComponentPad*
G36*
G01*
X63382000Y-93323000D02*
X63382000Y-96923000D01*
G75*
G02*
X63132000Y-97173000I-250000J0D01*
G01*
X60472000Y-97173000D01*
G75*
G02*
X60222000Y-96923000I0J250000D01*
G01*
X60222000Y-93323000D01*
G75*
G02*
X60472000Y-93073000I250000J0D01*
G01*
X63132000Y-93073000D01*
G75*
G02*
X63382000Y-93323000I0J-250000D01*
G01*
G37*
G04 #@! TD.AperFunction*
X82948500Y-131064000D03*
X86908500Y-131064000D03*
G04 #@! TA.AperFunction,ComponentPad*
G36*
G01*
X92448500Y-129264000D02*
X92448500Y-132864000D01*
G75*
G02*
X92198500Y-133114000I-250000J0D01*
G01*
X89538500Y-133114000D01*
G75*
G02*
X89288500Y-132864000I0J250000D01*
G01*
X89288500Y-129264000D01*
G75*
G02*
X89538500Y-129014000I250000J0D01*
G01*
X92198500Y-129014000D01*
G75*
G02*
X92448500Y-129264000I0J-250000D01*
G01*
G37*
G04 #@! TD.AperFunction*
X82948500Y-94996000D03*
X86908500Y-94996000D03*
G04 #@! TA.AperFunction,ComponentPad*
G36*
G01*
X92448500Y-93196000D02*
X92448500Y-96796000D01*
G75*
G02*
X92198500Y-97046000I-250000J0D01*
G01*
X89538500Y-97046000D01*
G75*
G02*
X89288500Y-96796000I0J250000D01*
G01*
X89288500Y-93196000D01*
G75*
G02*
X89538500Y-92946000I250000J0D01*
G01*
X92198500Y-92946000D01*
G75*
G02*
X92448500Y-93196000I0J-250000D01*
G01*
G37*
G04 #@! TD.AperFunction*
X104257000Y-149479000D03*
X108217000Y-149479000D03*
X112177000Y-149479000D03*
X116137000Y-149479000D03*
X120097000Y-149479000D03*
X124057000Y-149479000D03*
X128017000Y-149479000D03*
X131977000Y-149479000D03*
X135937000Y-149479000D03*
X139897000Y-149479000D03*
X143857000Y-149479000D03*
X147817000Y-149479000D03*
X151777000Y-149479000D03*
X155737000Y-149479000D03*
X159697000Y-149479000D03*
X163657000Y-149479000D03*
X167617000Y-149479000D03*
G04 #@! TA.AperFunction,ComponentPad*
G36*
G01*
X173157000Y-147679000D02*
X173157000Y-151279000D01*
G75*
G02*
X172907000Y-151529000I-250000J0D01*
G01*
X170247000Y-151529000D01*
G75*
G02*
X169997000Y-151279000I0J250000D01*
G01*
X169997000Y-147679000D01*
G75*
G02*
X170247000Y-147429000I250000J0D01*
G01*
X172907000Y-147429000D01*
G75*
G02*
X173157000Y-147679000I0J-250000D01*
G01*
G37*
G04 #@! TD.AperFunction*
X129604500Y-127508000D03*
X133564500Y-127508000D03*
X137524500Y-127508000D03*
X141484500Y-127508000D03*
X145444500Y-127508000D03*
X149404500Y-127508000D03*
X153364500Y-127508000D03*
X157324500Y-127508000D03*
X161284500Y-127508000D03*
X165244500Y-127508000D03*
X169204500Y-127508000D03*
G04 #@! TA.AperFunction,ComponentPad*
G36*
G01*
X174744500Y-125708000D02*
X174744500Y-129308000D01*
G75*
G02*
X174494500Y-129558000I-250000J0D01*
G01*
X171834500Y-129558000D01*
G75*
G02*
X171584500Y-129308000I0J250000D01*
G01*
X171584500Y-125708000D01*
G75*
G02*
X171834500Y-125458000I250000J0D01*
G01*
X174494500Y-125458000D01*
G75*
G02*
X174744500Y-125708000I0J-250000D01*
G01*
G37*
G04 #@! TD.AperFunction*
X209967000Y-149479000D03*
X213927000Y-149479000D03*
X217887000Y-149479000D03*
X221847000Y-149479000D03*
X225807000Y-149479000D03*
X229767000Y-149479000D03*
X233727000Y-149479000D03*
X237687000Y-149479000D03*
X241647000Y-149479000D03*
X245607000Y-149479000D03*
X249567000Y-149479000D03*
X253527000Y-149479000D03*
X257487000Y-149479000D03*
X261447000Y-149479000D03*
X265407000Y-149479000D03*
G04 #@! TA.AperFunction,ComponentPad*
G36*
G01*
X270947000Y-147679000D02*
X270947000Y-151279000D01*
G75*
G02*
X270697000Y-151529000I-250000J0D01*
G01*
X268037000Y-151529000D01*
G75*
G02*
X267787000Y-151279000I0J250000D01*
G01*
X267787000Y-147679000D01*
G75*
G02*
X268037000Y-147429000I250000J0D01*
G01*
X270697000Y-147429000D01*
G75*
G02*
X270947000Y-147679000I0J-250000D01*
G01*
G37*
G04 #@! TD.AperFunction*
X209931000Y-127635000D03*
X213891000Y-127635000D03*
X217851000Y-127635000D03*
X221811000Y-127635000D03*
X225771000Y-127635000D03*
X229731000Y-127635000D03*
X233691000Y-127635000D03*
X237651000Y-127635000D03*
X241611000Y-127635000D03*
X245571000Y-127635000D03*
X249531000Y-127635000D03*
X253491000Y-127635000D03*
X257451000Y-127635000D03*
X261411000Y-127635000D03*
X265371000Y-127635000D03*
G04 #@! TA.AperFunction,ComponentPad*
G36*
G01*
X270911000Y-125835000D02*
X270911000Y-129435000D01*
G75*
G02*
X270661000Y-129685000I-250000J0D01*
G01*
X268001000Y-129685000D01*
G75*
G02*
X267751000Y-129435000I0J250000D01*
G01*
X267751000Y-125835000D01*
G75*
G02*
X268001000Y-125585000I250000J0D01*
G01*
X270661000Y-125585000D01*
G75*
G02*
X270911000Y-125835000I0J-250000D01*
G01*
G37*
G04 #@! TD.AperFunction*
X287448000Y-149479000D03*
X291408000Y-149479000D03*
X295368000Y-149479000D03*
X299328000Y-149479000D03*
X303288000Y-149479000D03*
X307248000Y-149479000D03*
X311208000Y-149479000D03*
X315168000Y-149479000D03*
X319128000Y-149479000D03*
G04 #@! TA.AperFunction,ComponentPad*
G36*
G01*
X324668000Y-147679000D02*
X324668000Y-151279000D01*
G75*
G02*
X324418000Y-151529000I-250000J0D01*
G01*
X321758000Y-151529000D01*
G75*
G02*
X321508000Y-151279000I0J250000D01*
G01*
X321508000Y-147679000D01*
G75*
G02*
X321758000Y-147429000I250000J0D01*
G01*
X324418000Y-147429000D01*
G75*
G02*
X324668000Y-147679000I0J-250000D01*
G01*
G37*
G04 #@! TD.AperFunction*
X318886000Y-127635000D03*
X322846000Y-127635000D03*
X326806000Y-127635000D03*
X330766000Y-127635000D03*
X334726000Y-127635000D03*
X338686000Y-127635000D03*
G04 #@! TA.AperFunction,ComponentPad*
G36*
G01*
X344226000Y-125835000D02*
X344226000Y-129435000D01*
G75*
G02*
X343976000Y-129685000I-250000J0D01*
G01*
X341316000Y-129685000D01*
G75*
G02*
X341066000Y-129435000I0J250000D01*
G01*
X341066000Y-125835000D01*
G75*
G02*
X341316000Y-125585000I250000J0D01*
G01*
X343976000Y-125585000D01*
G75*
G02*
X344226000Y-125835000I0J-250000D01*
G01*
G37*
G04 #@! TD.AperFunction*
X337498000Y-149606000D03*
X341458000Y-149606000D03*
X345418000Y-149606000D03*
X349378000Y-149606000D03*
X353338000Y-149606000D03*
X357298000Y-149606000D03*
X361258000Y-149606000D03*
X365218000Y-149606000D03*
X369178000Y-149606000D03*
X373138000Y-149606000D03*
X377098000Y-149606000D03*
X381058000Y-149606000D03*
X385018000Y-149606000D03*
X388978000Y-149606000D03*
G04 #@! TA.AperFunction,ComponentPad*
G36*
G01*
X394518000Y-147806000D02*
X394518000Y-151406000D01*
G75*
G02*
X394268000Y-151656000I-250000J0D01*
G01*
X391608000Y-151656000D01*
G75*
G02*
X391358000Y-151406000I0J250000D01*
G01*
X391358000Y-147806000D01*
G75*
G02*
X391608000Y-147556000I250000J0D01*
G01*
X394268000Y-147556000D01*
G75*
G02*
X394518000Y-147806000I0J-250000D01*
G01*
G37*
G04 #@! TD.AperFunction*
X357632000Y-127635000D03*
X361592000Y-127635000D03*
X365552000Y-127635000D03*
X369512000Y-127635000D03*
X373472000Y-127635000D03*
X377432000Y-127635000D03*
X381392000Y-127635000D03*
X385352000Y-127635000D03*
X389312000Y-127635000D03*
G04 #@! TA.AperFunction,ComponentPad*
G36*
G01*
X394852000Y-125835000D02*
X394852000Y-129435000D01*
G75*
G02*
X394602000Y-129685000I-250000J0D01*
G01*
X391942000Y-129685000D01*
G75*
G02*
X391692000Y-129435000I0J250000D01*
G01*
X391692000Y-125835000D01*
G75*
G02*
X391942000Y-125585000I250000J0D01*
G01*
X394602000Y-125585000D01*
G75*
G02*
X394852000Y-125835000I0J-250000D01*
G01*
G37*
G04 #@! TD.AperFunction*
D18*
X409194000Y-127438000D03*
X409194000Y-123478000D03*
X409194000Y-119518000D03*
X409194000Y-115558000D03*
X409194000Y-111598000D03*
X409194000Y-107638000D03*
X409194000Y-103678000D03*
X409194000Y-99718000D03*
G04 #@! TA.AperFunction,ComponentPad*
G36*
G01*
X407394000Y-94178000D02*
X410994000Y-94178000D01*
G75*
G02*
X411244000Y-94428000I0J-250000D01*
G01*
X411244000Y-97088000D01*
G75*
G02*
X410994000Y-97338000I-250000J0D01*
G01*
X407394000Y-97338000D01*
G75*
G02*
X407144000Y-97088000I0J250000D01*
G01*
X407144000Y-94428000D01*
G75*
G02*
X407394000Y-94178000I250000J0D01*
G01*
G37*
G04 #@! TD.AperFunction*
D17*
X393191000Y-73406000D03*
X389231000Y-73406000D03*
X385271000Y-73406000D03*
X381311000Y-73406000D03*
X377351000Y-73406000D03*
X373391000Y-73406000D03*
X369431000Y-73406000D03*
X365471000Y-73406000D03*
X361511000Y-73406000D03*
X357551000Y-73406000D03*
X353591000Y-73406000D03*
G04 #@! TA.AperFunction,ComponentPad*
G36*
G01*
X348051000Y-75206000D02*
X348051000Y-71606000D01*
G75*
G02*
X348301000Y-71356000I250000J0D01*
G01*
X350961000Y-71356000D01*
G75*
G02*
X351211000Y-71606000I0J-250000D01*
G01*
X351211000Y-75206000D01*
G75*
G02*
X350961000Y-75456000I-250000J0D01*
G01*
X348301000Y-75456000D01*
G75*
G02*
X348051000Y-75206000I0J250000D01*
G01*
G37*
G04 #@! TD.AperFunction*
X286385000Y-73406000D03*
X282425000Y-73406000D03*
X278465000Y-73406000D03*
X274505000Y-73406000D03*
X270545000Y-73406000D03*
X266585000Y-73406000D03*
X262625000Y-73406000D03*
X258665000Y-73406000D03*
X254705000Y-73406000D03*
X250745000Y-73406000D03*
X246785000Y-73406000D03*
X242825000Y-73406000D03*
X238865000Y-73406000D03*
X234905000Y-73406000D03*
X230945000Y-73406000D03*
G04 #@! TA.AperFunction,ComponentPad*
G36*
G01*
X225405000Y-75206000D02*
X225405000Y-71606000D01*
G75*
G02*
X225655000Y-71356000I250000J0D01*
G01*
X228315000Y-71356000D01*
G75*
G02*
X228565000Y-71606000I0J-250000D01*
G01*
X228565000Y-75206000D01*
G75*
G02*
X228315000Y-75456000I-250000J0D01*
G01*
X225655000Y-75456000D01*
G75*
G02*
X225405000Y-75206000I0J250000D01*
G01*
G37*
G04 #@! TD.AperFunction*
X203210000Y-73406000D03*
X199250000Y-73406000D03*
X195290000Y-73406000D03*
X191330000Y-73406000D03*
X187370000Y-73406000D03*
X183410000Y-73406000D03*
X179450000Y-73406000D03*
X175490000Y-73406000D03*
X171530000Y-73406000D03*
X167570000Y-73406000D03*
X163610000Y-73406000D03*
X159650000Y-73406000D03*
X155690000Y-73406000D03*
X151730000Y-73406000D03*
X147770000Y-73406000D03*
X143810000Y-73406000D03*
X139850000Y-73406000D03*
G04 #@! TA.AperFunction,ComponentPad*
G36*
G01*
X134310000Y-75206000D02*
X134310000Y-71606000D01*
G75*
G02*
X134560000Y-71356000I250000J0D01*
G01*
X137220000Y-71356000D01*
G75*
G02*
X137470000Y-71606000I0J-250000D01*
G01*
X137470000Y-75206000D01*
G75*
G02*
X137220000Y-75456000I-250000J0D01*
G01*
X134560000Y-75456000D01*
G75*
G02*
X134310000Y-75206000I0J250000D01*
G01*
G37*
G04 #@! TD.AperFunction*
X115997000Y-73279000D03*
X112037000Y-73279000D03*
G04 #@! TA.AperFunction,ComponentPad*
G36*
G01*
X106497000Y-75079000D02*
X106497000Y-71479000D01*
G75*
G02*
X106747000Y-71229000I250000J0D01*
G01*
X109407000Y-71229000D01*
G75*
G02*
X109657000Y-71479000I0J-250000D01*
G01*
X109657000Y-75079000D01*
G75*
G02*
X109407000Y-75329000I-250000J0D01*
G01*
X106747000Y-75329000D01*
G75*
G02*
X106497000Y-75079000I0J250000D01*
G01*
G37*
G04 #@! TD.AperFunction*
X101229000Y-73279000D03*
X97269000Y-73279000D03*
X93309000Y-73279000D03*
X89349000Y-73279000D03*
X85389000Y-73279000D03*
X81429000Y-73279000D03*
X77469000Y-73279000D03*
X73509000Y-73279000D03*
X69549000Y-73279000D03*
X65589000Y-73279000D03*
X61629000Y-73279000D03*
X57669000Y-73279000D03*
X53709000Y-73279000D03*
X49749000Y-73279000D03*
X45789000Y-73279000D03*
X41829000Y-73279000D03*
X37869000Y-73279000D03*
G04 #@! TA.AperFunction,ComponentPad*
G36*
G01*
X32329000Y-75079000D02*
X32329000Y-71479000D01*
G75*
G02*
X32579000Y-71229000I250000J0D01*
G01*
X35239000Y-71229000D01*
G75*
G02*
X35489000Y-71479000I0J-250000D01*
G01*
X35489000Y-75079000D01*
G75*
G02*
X35239000Y-75329000I-250000J0D01*
G01*
X32579000Y-75329000D01*
G75*
G02*
X32329000Y-75079000I0J250000D01*
G01*
G37*
G04 #@! TD.AperFunction*
D19*
X308673500Y-127508000D03*
X81280000Y-137985500D03*
X65722500Y-101028500D03*
X125857000Y-116967000D03*
X309562500Y-87249000D03*
X308356000Y-82931000D03*
X102171500Y-142367000D03*
X328295000Y-107823000D03*
X334408500Y-103678000D03*
X324866000Y-91630500D03*
X367411000Y-78676500D03*
X367411000Y-78676500D03*
X104965500Y-108013500D03*
D20*
X365552000Y-92756000D02*
X365506000Y-92710000D01*
X365552000Y-127635000D02*
X365552000Y-92756000D01*
X365506000Y-92710000D02*
X368534000Y-92710000D01*
X360914000Y-92710000D02*
X365506000Y-92710000D01*
X388894000Y-92710000D02*
X396514000Y-92710000D01*
X405144000Y-115558000D02*
X403987000Y-114401000D01*
X409194000Y-115558000D02*
X405144000Y-115558000D01*
X403987000Y-114401000D02*
X403987000Y-96075500D01*
X400621500Y-92710000D02*
X396514000Y-92710000D01*
X403987000Y-96075500D02*
X400621500Y-92710000D01*
X316952000Y-92710000D02*
X309332000Y-92710000D01*
X318886000Y-123585000D02*
X318886000Y-127635000D01*
X320548000Y-121923000D02*
X318886000Y-123585000D01*
X320548000Y-96306000D02*
X320548000Y-121923000D01*
X316952000Y-92710000D02*
X320548000Y-96306000D01*
X318886000Y-127635000D02*
X308927500Y-127635000D01*
X308800500Y-127635000D02*
X308673500Y-127508000D01*
X308927500Y-127635000D02*
X308800500Y-127635000D01*
X368534000Y-111506000D02*
X368534000Y-114153000D01*
X369512000Y-115131000D02*
X369512000Y-127635000D01*
X368534000Y-114153000D02*
X369512000Y-115131000D01*
X388894000Y-111506000D02*
X396514000Y-111506000D01*
X409194000Y-123478000D02*
X403449500Y-123478000D01*
X396514000Y-116542500D02*
X396514000Y-111506000D01*
X403449500Y-123478000D02*
X396514000Y-116542500D01*
X337185000Y-111506000D02*
X344805000Y-111506000D01*
X344805000Y-111506000D02*
X344805000Y-120904000D01*
X342646000Y-123063000D02*
X342646000Y-127635000D01*
X344805000Y-120904000D02*
X342646000Y-123063000D01*
D21*
X81280000Y-137922000D02*
X81280000Y-137985500D01*
X77914500Y-134556500D02*
X81280000Y-137922000D01*
X77914500Y-95694500D02*
X77914500Y-134556500D01*
X93091000Y-80518000D02*
X77914500Y-95694500D01*
X96901000Y-80518000D02*
X93091000Y-80518000D01*
X101229000Y-76190000D02*
X96901000Y-80518000D01*
X101229000Y-73279000D02*
X101229000Y-76190000D01*
X92166000Y-144680500D02*
X92166000Y-149479000D01*
X89662000Y-142176500D02*
X92166000Y-144680500D01*
X81724500Y-142176500D02*
X89662000Y-142176500D01*
X76898500Y-137350500D02*
X81724500Y-142176500D01*
X76898500Y-94678500D02*
X76898500Y-137350500D01*
X97269000Y-74308000D02*
X76898500Y-94678500D01*
X97269000Y-73279000D02*
X97269000Y-74308000D01*
X88206000Y-146816500D02*
X88206000Y-149479000D01*
X85344000Y-143954500D02*
X88206000Y-146816500D01*
X80200500Y-143954500D02*
X85344000Y-143954500D01*
X75819000Y-139573000D02*
X80200500Y-143954500D01*
X75819000Y-93472000D02*
X75819000Y-139573000D01*
X93309000Y-75982000D02*
X75819000Y-93472000D01*
X93309000Y-73279000D02*
X93309000Y-75982000D01*
X84246000Y-147047500D02*
X84246000Y-149479000D01*
X82613500Y-145415000D02*
X84246000Y-147047500D01*
X79562867Y-145415000D02*
X82613500Y-145415000D01*
X74739500Y-140591633D02*
X79562867Y-145415000D01*
X74739500Y-92900500D02*
X74739500Y-140591633D01*
X89349000Y-78291000D02*
X74739500Y-92900500D01*
X89349000Y-73279000D02*
X89349000Y-78291000D01*
X73723500Y-141414500D02*
X80286000Y-147977000D01*
X73723500Y-92202000D02*
X73723500Y-141414500D01*
X85389000Y-80536500D02*
X73723500Y-92202000D01*
X80286000Y-147977000D02*
X80286000Y-149479000D01*
X85389000Y-73279000D02*
X85389000Y-80536500D01*
X72707500Y-142113000D02*
X76326000Y-145731500D01*
X72707500Y-91567000D02*
X72707500Y-142113000D01*
X76326000Y-145731500D02*
X76326000Y-149479000D01*
X81429000Y-82845500D02*
X72707500Y-91567000D01*
X81429000Y-73279000D02*
X81429000Y-82845500D01*
D20*
X65763000Y-127762000D02*
X65763000Y-94066500D01*
X77469000Y-82360500D02*
X77469000Y-73279000D01*
X65763000Y-94066500D02*
X77469000Y-82360500D01*
X72366000Y-145137000D02*
X72366000Y-149479000D01*
X65763000Y-138534000D02*
X72366000Y-145137000D01*
X65763000Y-127762000D02*
X65763000Y-138534000D01*
X61803000Y-95124000D02*
X61802000Y-95123000D01*
X61803000Y-127762000D02*
X61803000Y-95124000D01*
X61802000Y-95123000D02*
X61802000Y-92820500D01*
X73509000Y-81113500D02*
X73509000Y-73279000D01*
X61802000Y-92820500D02*
X73509000Y-81113500D01*
X68406000Y-145431500D02*
X68406000Y-149479000D01*
X61803000Y-138828500D02*
X68406000Y-145431500D01*
X61803000Y-127762000D02*
X61803000Y-138828500D01*
X53883000Y-95124000D02*
X53882000Y-95123000D01*
X53883000Y-127762000D02*
X53883000Y-95124000D01*
X53882000Y-95123000D02*
X53882000Y-91850500D01*
X61629000Y-84103500D02*
X61629000Y-73279000D01*
X53882000Y-91850500D02*
X61629000Y-84103500D01*
X60486000Y-141639000D02*
X60486000Y-149479000D01*
X53883000Y-135036000D02*
X60486000Y-141639000D01*
X53883000Y-127762000D02*
X53883000Y-135036000D01*
X49923000Y-95124000D02*
X49922000Y-95123000D01*
X49923000Y-127762000D02*
X49923000Y-95124000D01*
X49922000Y-95123000D02*
X49922000Y-91238500D01*
X57669000Y-83491500D02*
X57669000Y-73279000D01*
X49922000Y-91238500D02*
X57669000Y-83491500D01*
X56526000Y-141997000D02*
X56526000Y-149479000D01*
X49923000Y-135394000D02*
X56526000Y-141997000D01*
X49923000Y-127762000D02*
X49923000Y-135394000D01*
X45963000Y-95124000D02*
X45962000Y-95123000D01*
X45963000Y-127762000D02*
X45963000Y-95124000D01*
X45962000Y-95123000D02*
X45962000Y-90880500D01*
X53709000Y-83133500D02*
X53709000Y-73279000D01*
X45962000Y-90880500D02*
X53709000Y-83133500D01*
X52566000Y-142355000D02*
X52566000Y-149479000D01*
X45963000Y-135752000D02*
X52566000Y-142355000D01*
X45963000Y-127762000D02*
X45963000Y-135752000D01*
X42002000Y-127761000D02*
X42003000Y-127762000D01*
X42002000Y-95123000D02*
X42002000Y-127761000D01*
X42002000Y-95123000D02*
X42002000Y-90141500D01*
X49749000Y-82394500D02*
X49749000Y-73279000D01*
X42002000Y-90141500D02*
X49749000Y-82394500D01*
X48606000Y-142649500D02*
X48606000Y-149479000D01*
X42003000Y-136046500D02*
X48606000Y-142649500D01*
X42003000Y-127762000D02*
X42003000Y-136046500D01*
X38043000Y-95124000D02*
X38042000Y-95123000D01*
X38043000Y-127762000D02*
X38043000Y-95124000D01*
X38042000Y-95123000D02*
X38042000Y-89656500D01*
X45789000Y-81909500D02*
X45789000Y-73279000D01*
X38042000Y-89656500D02*
X45789000Y-81909500D01*
X44646000Y-142944000D02*
X44646000Y-149479000D01*
X38043000Y-136341000D02*
X44646000Y-142944000D01*
X38043000Y-127762000D02*
X38043000Y-136341000D01*
X34083000Y-95124000D02*
X34082000Y-95123000D01*
X34083000Y-127762000D02*
X34083000Y-95124000D01*
X34082000Y-95123000D02*
X34082000Y-89044500D01*
X41829000Y-81297500D02*
X41829000Y-73279000D01*
X34082000Y-89044500D02*
X41829000Y-81297500D01*
X40686000Y-143238500D02*
X40686000Y-149479000D01*
X34083000Y-136635500D02*
X40686000Y-143238500D01*
X34083000Y-127762000D02*
X34083000Y-136635500D01*
X30123000Y-95124000D02*
X30122000Y-95123000D01*
X30123000Y-127762000D02*
X30123000Y-95124000D01*
X30122000Y-95123000D02*
X30122000Y-88369000D01*
X37869000Y-80622000D02*
X37869000Y-73279000D01*
X30122000Y-88369000D02*
X37869000Y-80622000D01*
D21*
X109220000Y-89535000D02*
X104267000Y-94488000D01*
X104267000Y-106299000D02*
X102997000Y-107569000D01*
X104267000Y-94488000D02*
X104267000Y-106299000D01*
X91313000Y-107569000D02*
X102997000Y-107569000D01*
D20*
X36726000Y-143533000D02*
X36726000Y-149479000D01*
X30123000Y-136930000D02*
X36726000Y-143533000D01*
X30123000Y-127762000D02*
X30123000Y-136930000D01*
X26162000Y-127761000D02*
X26163000Y-127762000D01*
X26162000Y-95123000D02*
X26162000Y-127761000D01*
X26162000Y-81026000D02*
X33909000Y-73279000D01*
X26162000Y-95123000D02*
X26162000Y-81026000D01*
X32766000Y-144018000D02*
X32766000Y-149479000D01*
X26163000Y-137415000D02*
X32766000Y-144018000D01*
X26163000Y-127762000D02*
X26163000Y-137415000D01*
D21*
X115997000Y-78249500D02*
X115997000Y-73279000D01*
X113474500Y-80772000D02*
X115997000Y-78249500D01*
X100520500Y-85661500D02*
X105410000Y-80772000D01*
X105410000Y-80772000D02*
X113474500Y-80772000D01*
X90868500Y-91186000D02*
X96393000Y-85661500D01*
X96393000Y-85661500D02*
X100520500Y-85661500D01*
X90868500Y-94996000D02*
X90868500Y-91186000D01*
X85026500Y-125603000D02*
X88773000Y-125603000D01*
X81343500Y-121920000D02*
X85026500Y-125603000D01*
X81343500Y-104140000D02*
X81343500Y-121920000D01*
X89598500Y-98488500D02*
X86995000Y-98488500D01*
X90868500Y-127698500D02*
X90868500Y-131064000D01*
X88773000Y-125603000D02*
X90868500Y-127698500D01*
X90868500Y-97218500D02*
X89598500Y-98488500D01*
X86995000Y-98488500D02*
X81343500Y-104140000D01*
X90868500Y-94996000D02*
X90868500Y-97218500D01*
X86908500Y-94996000D02*
X86908500Y-92352000D01*
X86908500Y-92352000D02*
X94932500Y-84328000D01*
X94932500Y-84328000D02*
X99758500Y-84328000D01*
X99758500Y-84328000D02*
X104838500Y-79248000D01*
X112037000Y-75829000D02*
X112037000Y-73279000D01*
X108618000Y-79248000D02*
X112037000Y-75829000D01*
X104838500Y-79248000D02*
X108618000Y-79248000D01*
X86908500Y-128818500D02*
X86908500Y-131064000D01*
X80264000Y-122174000D02*
X86908500Y-128818500D01*
X80264000Y-103886000D02*
X80264000Y-122174000D01*
X86908500Y-97241500D02*
X80264000Y-103886000D01*
X86908500Y-94996000D02*
X86908500Y-97241500D01*
X82948500Y-94996000D02*
X82948500Y-93200500D01*
X82948500Y-93200500D02*
X93218000Y-82931000D01*
X98425000Y-82931000D02*
X108077000Y-73279000D01*
X93218000Y-82931000D02*
X98425000Y-82931000D01*
X79057500Y-127173000D02*
X82948500Y-131064000D01*
X79057500Y-103251000D02*
X79057500Y-127173000D01*
X82948500Y-99360000D02*
X79057500Y-103251000D01*
X82948500Y-94996000D02*
X82948500Y-99360000D01*
D20*
X190563500Y-90233500D02*
X177165000Y-90233500D01*
X203210000Y-77587000D02*
X190563500Y-90233500D01*
X203210000Y-73406000D02*
X203210000Y-77587000D01*
X173164500Y-94234000D02*
X177165000Y-90233500D01*
X173164500Y-100838000D02*
X173164500Y-94234000D01*
X199250000Y-73406000D02*
X199250000Y-77546500D01*
X199250000Y-77546500D02*
X189420500Y-87376000D01*
X189420500Y-87376000D02*
X176212500Y-87376000D01*
X169204500Y-94384000D02*
X176212500Y-87376000D01*
X169204500Y-100838000D02*
X169204500Y-94384000D01*
X195290000Y-73406000D02*
X195290000Y-77252000D01*
X195290000Y-77252000D02*
X188023500Y-84518500D01*
X188023500Y-84518500D02*
X175069500Y-84518500D01*
X165244500Y-94343500D02*
X175069500Y-84518500D01*
X165244500Y-100838000D02*
X165244500Y-94343500D01*
X186944000Y-81534000D02*
X173926500Y-81534000D01*
X191330000Y-77148000D02*
X186944000Y-81534000D01*
X191330000Y-73406000D02*
X191330000Y-77148000D01*
X161284500Y-94176000D02*
X173926500Y-81534000D01*
X161284500Y-100838000D02*
X161284500Y-94176000D01*
X151574500Y-93091000D02*
X131635500Y-93091000D01*
X163610000Y-81055500D02*
X151574500Y-93091000D01*
X163610000Y-73406000D02*
X163610000Y-81055500D01*
X135937000Y-138891000D02*
X135937000Y-149479000D01*
X141484500Y-133343500D02*
X135937000Y-138891000D01*
X141484500Y-127508000D02*
X141484500Y-133343500D01*
X141484500Y-124974500D02*
X141484500Y-127508000D01*
X138684000Y-122174000D02*
X141484500Y-124974500D01*
X127508000Y-122174000D02*
X138684000Y-122174000D01*
X123634500Y-118300500D02*
X127508000Y-122174000D01*
X123634500Y-101092000D02*
X123634500Y-118300500D01*
X131635500Y-93091000D02*
X123634500Y-101092000D01*
X126428500Y-93091000D02*
X129921000Y-89598500D01*
X129921000Y-89598500D02*
X149669500Y-89598500D01*
X159650000Y-79618000D02*
X159650000Y-73406000D01*
X149669500Y-89598500D02*
X159650000Y-79618000D01*
X120713500Y-98806000D02*
X126428500Y-93091000D01*
X120713500Y-131762500D02*
X120713500Y-98806000D01*
X128017000Y-139066000D02*
X120713500Y-131762500D01*
X128017000Y-149479000D02*
X128017000Y-139066000D01*
X155690000Y-79196500D02*
X155690000Y-73406000D01*
X148844000Y-86042500D02*
X155690000Y-79196500D01*
X129095500Y-86042500D02*
X148844000Y-86042500D01*
X117729000Y-97409000D02*
X129095500Y-86042500D01*
X117729000Y-133477000D02*
X117729000Y-97409000D01*
X124057000Y-139805000D02*
X117729000Y-133477000D01*
X124057000Y-149479000D02*
X124057000Y-139805000D01*
X146191500Y-82994500D02*
X151730000Y-77456000D01*
X127444500Y-82994500D02*
X146191500Y-82994500D01*
X114427000Y-96012000D02*
X127444500Y-82994500D01*
X151730000Y-77456000D02*
X151730000Y-73406000D01*
X114427000Y-134366000D02*
X114427000Y-96012000D01*
X120097000Y-140036000D02*
X114427000Y-134366000D01*
X120097000Y-149479000D02*
X120097000Y-140036000D01*
X107061000Y-136144000D02*
X116137000Y-145220000D01*
X144780000Y-80010000D02*
X125730000Y-80010000D01*
X116137000Y-145220000D02*
X116137000Y-149479000D01*
X107061000Y-98679000D02*
X107061000Y-136144000D01*
X147770000Y-77020000D02*
X144780000Y-80010000D01*
X125730000Y-80010000D02*
X107061000Y-98679000D01*
X147770000Y-73406000D02*
X147770000Y-77020000D01*
X269331000Y-149443000D02*
X269367000Y-149479000D01*
X269331000Y-127635000D02*
X269331000Y-149443000D01*
X265371000Y-149443000D02*
X265407000Y-149479000D01*
X265371000Y-127635000D02*
X265371000Y-149443000D01*
X261411000Y-149443000D02*
X261447000Y-149479000D01*
X261411000Y-127635000D02*
X261411000Y-149443000D01*
X299974000Y-89662000D02*
X299974000Y-96662000D01*
X288925000Y-89662000D02*
X288925000Y-96662000D01*
X270545000Y-73406000D02*
X270545000Y-76362000D01*
X283845000Y-89662000D02*
X288925000Y-89662000D01*
X270545000Y-76362000D02*
X283845000Y-89662000D01*
X278003000Y-89662000D02*
X278003000Y-96662000D01*
X266585000Y-78244000D02*
X278003000Y-89662000D01*
X266585000Y-73406000D02*
X266585000Y-78244000D01*
X267081000Y-89662000D02*
X267081000Y-96662000D01*
X262625000Y-85206000D02*
X267081000Y-89662000D01*
X262625000Y-73406000D02*
X262625000Y-85206000D01*
X256032000Y-89662000D02*
X256032000Y-96662000D01*
X254705000Y-88335000D02*
X256032000Y-89662000D01*
X254705000Y-73406000D02*
X254705000Y-88335000D01*
X244602000Y-89662000D02*
X244602000Y-96662000D01*
X250745000Y-83519000D02*
X244602000Y-89662000D01*
X250745000Y-73406000D02*
X250745000Y-83519000D01*
X233045000Y-89662000D02*
X233045000Y-96662000D01*
X221488000Y-89662000D02*
X221488000Y-96662000D01*
X242825000Y-73406000D02*
X242825000Y-80199500D01*
X242825000Y-80199500D02*
X238569500Y-84455000D01*
X238569500Y-84455000D02*
X238569500Y-99187000D01*
X238569500Y-99187000D02*
X236601000Y-101155500D01*
X225981500Y-101155500D02*
X221488000Y-96662000D01*
X236601000Y-101155500D02*
X225981500Y-101155500D01*
X210312000Y-89662000D02*
X210312000Y-96662000D01*
X238865000Y-73406000D02*
X238865000Y-78317500D01*
X238865000Y-78317500D02*
X236474000Y-80708500D01*
X236474000Y-80708500D02*
X215900000Y-80708500D01*
X210312000Y-86296500D02*
X210312000Y-89662000D01*
X215900000Y-80708500D02*
X210312000Y-86296500D01*
X199136000Y-89662000D02*
X199136000Y-96662000D01*
X183261000Y-95250000D02*
X183261000Y-102250000D01*
X193548000Y-120396000D02*
X193548000Y-127396000D01*
X392938000Y-127969000D02*
X393272000Y-127635000D01*
X392938000Y-149606000D02*
X392938000Y-127969000D01*
X393272000Y-127635000D02*
X393272000Y-122444500D01*
X393272000Y-122444500D02*
X385445000Y-114617500D01*
X385445000Y-114617500D02*
X385445000Y-90614500D01*
X393191000Y-82868500D02*
X393191000Y-73406000D01*
X385445000Y-90614500D02*
X393191000Y-82868500D01*
X388978000Y-127969000D02*
X389312000Y-127635000D01*
X388978000Y-149606000D02*
X388978000Y-127969000D01*
X389231000Y-82320000D02*
X389231000Y-73406000D01*
X382143000Y-89408000D02*
X389231000Y-82320000D01*
X382143000Y-116078000D02*
X382143000Y-89408000D01*
X389312000Y-123247000D02*
X382143000Y-116078000D01*
X389312000Y-127635000D02*
X389312000Y-123247000D01*
X385018000Y-127969000D02*
X385352000Y-127635000D01*
X385018000Y-149606000D02*
X385018000Y-127969000D01*
X385271000Y-81835000D02*
X385271000Y-73406000D01*
X378841000Y-88265000D02*
X385271000Y-81835000D01*
X385352000Y-123795500D02*
X378841000Y-117284500D01*
X378841000Y-117284500D02*
X378841000Y-88265000D01*
X385352000Y-127635000D02*
X385352000Y-123795500D01*
X381058000Y-149606000D02*
X381058000Y-139250000D01*
X377432000Y-135624000D02*
X377432000Y-127635000D01*
X381058000Y-139250000D02*
X377432000Y-135624000D01*
X375729500Y-86931500D02*
X381311000Y-81350000D01*
X375729500Y-121285000D02*
X375729500Y-86931500D01*
X377444000Y-122999500D02*
X375729500Y-121285000D01*
X381311000Y-81350000D02*
X381311000Y-73406000D01*
X377444000Y-127623000D02*
X377444000Y-122999500D01*
X377432000Y-127635000D02*
X377444000Y-127623000D01*
D21*
X379476000Y-68834000D02*
X381311000Y-70669000D01*
X381311000Y-70669000D02*
X381311000Y-73406000D01*
X304419000Y-78740000D02*
X330898500Y-78740000D01*
X340804500Y-68834000D02*
X379476000Y-68834000D01*
X294322500Y-88836500D02*
X304419000Y-78740000D01*
X294322500Y-105854500D02*
X294322500Y-88836500D01*
X292989000Y-107188000D02*
X294322500Y-105854500D01*
X330898500Y-78740000D02*
X340804500Y-68834000D01*
X181800500Y-107188000D02*
X292989000Y-107188000D01*
X174307500Y-114681000D02*
X181800500Y-107188000D01*
X156083000Y-114681000D02*
X174307500Y-114681000D01*
D20*
X377098000Y-149606000D02*
X377098000Y-140751000D01*
X373472000Y-137125000D02*
X373472000Y-127635000D01*
X377098000Y-140751000D02*
X373472000Y-137125000D01*
X377351000Y-80865000D02*
X377351000Y-73406000D01*
X372427500Y-85788500D02*
X377351000Y-80865000D01*
X372427500Y-122745500D02*
X372427500Y-85788500D01*
X373507000Y-123825000D02*
X372427500Y-122745500D01*
X373507000Y-127600000D02*
X373507000Y-123825000D01*
X373472000Y-127635000D02*
X373507000Y-127600000D01*
D21*
X369431000Y-71870000D02*
X369431000Y-73406000D01*
X367601500Y-70040500D02*
X369431000Y-71870000D01*
X295846500Y-89471500D02*
X305308000Y-80010000D01*
X295846500Y-106616500D02*
X295846500Y-89471500D01*
X345313000Y-70040500D02*
X367601500Y-70040500D01*
X335343500Y-80010000D02*
X345313000Y-70040500D01*
X305308000Y-80010000D02*
X335343500Y-80010000D01*
X294132000Y-108331000D02*
X295846500Y-106616500D01*
X174815500Y-116967000D02*
X183451500Y-108331000D01*
X183451500Y-108331000D02*
X294132000Y-108331000D01*
X125857000Y-116967000D02*
X174815500Y-116967000D01*
D20*
X306070000Y-90741500D02*
X309562500Y-87249000D01*
X306070000Y-124206000D02*
X306070000Y-90741500D01*
X299328000Y-130948000D02*
X306070000Y-124206000D01*
X299328000Y-149479000D02*
X299328000Y-130948000D01*
X303085500Y-88201500D02*
X308356000Y-82931000D01*
X303085500Y-122872500D02*
X303085500Y-88201500D01*
X295368000Y-130590000D02*
X303085500Y-122872500D01*
X295368000Y-149479000D02*
X295368000Y-130590000D01*
X357551000Y-79710000D02*
X357551000Y-73406000D01*
X354012500Y-132397500D02*
X354012500Y-83248500D01*
X365218000Y-143603000D02*
X354012500Y-132397500D01*
X354012500Y-83248500D02*
X357551000Y-79710000D01*
X365218000Y-149606000D02*
X365218000Y-143603000D01*
D21*
X99314000Y-134747000D02*
X100266500Y-133794500D01*
X102298500Y-156781500D02*
X99314000Y-153797000D01*
X360680000Y-156781500D02*
X102298500Y-156781500D01*
X365218000Y-152243500D02*
X360680000Y-156781500D01*
X99314000Y-153797000D02*
X99314000Y-134747000D01*
X365218000Y-149606000D02*
X365218000Y-152243500D01*
D20*
X353591000Y-79606000D02*
X353591000Y-73406000D01*
X351028000Y-82169000D02*
X353591000Y-79606000D01*
X351028000Y-134175500D02*
X351028000Y-82169000D01*
X361258000Y-144405500D02*
X351028000Y-134175500D01*
X361258000Y-149606000D02*
X361258000Y-144405500D01*
D21*
X100584000Y-143954500D02*
X102171500Y-142367000D01*
X102616000Y-155829000D02*
X100584000Y-153797000D01*
X358775000Y-155829000D02*
X102616000Y-155829000D01*
X100584000Y-153797000D02*
X100584000Y-143954500D01*
X361258000Y-153346000D02*
X358775000Y-155829000D01*
X361258000Y-149606000D02*
X361258000Y-153346000D01*
D20*
X349567500Y-78359000D02*
X349567500Y-73469500D01*
X349567500Y-73469500D02*
X349631000Y-73406000D01*
X347980000Y-79946500D02*
X349567500Y-78359000D01*
X347980000Y-135890000D02*
X347980000Y-79946500D01*
X353338000Y-141248000D02*
X347980000Y-135890000D01*
X353338000Y-149606000D02*
X353338000Y-141248000D01*
X326806000Y-127635000D02*
X326806000Y-123585000D01*
X326806000Y-123585000D02*
X328295000Y-122096000D01*
X328295000Y-122096000D02*
X328295000Y-107823000D01*
X361592000Y-127635000D02*
X361823000Y-127404000D01*
X332930500Y-105156000D02*
X334408500Y-103678000D01*
X332930500Y-122301000D02*
X332930500Y-105156000D01*
X330766000Y-124465500D02*
X332930500Y-122301000D01*
X330766000Y-127635000D02*
X330766000Y-124465500D01*
X324866000Y-91630500D02*
X324866000Y-121539000D01*
X322846000Y-123559000D02*
X322846000Y-127635000D01*
X324866000Y-121539000D02*
X322846000Y-123559000D01*
X356997000Y-85344000D02*
X363664500Y-78676500D01*
X356997000Y-125285500D02*
X356997000Y-85344000D01*
X357632000Y-125920500D02*
X356997000Y-125285500D01*
X363664500Y-78676500D02*
X367411000Y-78676500D01*
X357632000Y-127635000D02*
X357632000Y-125920500D01*
X337371000Y-149479000D02*
X337498000Y-149606000D01*
X323088000Y-149479000D02*
X337371000Y-149479000D01*
X319128000Y-149479000D02*
X319128000Y-144930000D01*
X319128000Y-144930000D02*
X320548000Y-143510000D01*
X320548000Y-143510000D02*
X339153500Y-143510000D01*
X341458000Y-145814500D02*
X341458000Y-149606000D01*
X339153500Y-143510000D02*
X341458000Y-145814500D01*
X345418000Y-142472000D02*
X345418000Y-149606000D01*
X342074500Y-139128500D02*
X345418000Y-142472000D01*
X317500000Y-139128500D02*
X342074500Y-139128500D01*
X315168000Y-141460500D02*
X317500000Y-139128500D01*
X315168000Y-149479000D02*
X315168000Y-141460500D01*
X349378000Y-141415500D02*
X349378000Y-149606000D01*
X343598500Y-135636000D02*
X349378000Y-141415500D01*
X315531500Y-135636000D02*
X343598500Y-135636000D01*
X311208000Y-139959500D02*
X315531500Y-135636000D01*
X311208000Y-149479000D02*
X311208000Y-139959500D01*
X209931000Y-149443000D02*
X209967000Y-149479000D01*
X209931000Y-127635000D02*
X209931000Y-149443000D01*
X208570000Y-150876000D02*
X209967000Y-149479000D01*
X193548000Y-150876000D02*
X208570000Y-150876000D01*
X193548000Y-143876000D02*
X193548000Y-150876000D01*
X213891000Y-149443000D02*
X213927000Y-149479000D01*
X213891000Y-127635000D02*
X213891000Y-149443000D01*
X183261000Y-118730000D02*
X183261000Y-125730000D01*
X217851000Y-149443000D02*
X217887000Y-149479000D01*
X217851000Y-127635000D02*
X217851000Y-149443000D01*
X199136000Y-120142000D02*
X199136000Y-113142000D01*
X221811000Y-149443000D02*
X221847000Y-149479000D01*
X221811000Y-127635000D02*
X221811000Y-149443000D01*
X210312000Y-120142000D02*
X210312000Y-113142000D01*
X221811000Y-127635000D02*
X221811000Y-125989500D01*
X215963500Y-120142000D02*
X210312000Y-120142000D01*
X221811000Y-125989500D02*
X215963500Y-120142000D01*
X225771000Y-149443000D02*
X225807000Y-149479000D01*
X225771000Y-127635000D02*
X225771000Y-149443000D01*
X221488000Y-120142000D02*
X221488000Y-113142000D01*
X225771000Y-124425000D02*
X221488000Y-120142000D01*
X225771000Y-127635000D02*
X225771000Y-124425000D01*
X229731000Y-149443000D02*
X229767000Y-149479000D01*
X229731000Y-127635000D02*
X229731000Y-149443000D01*
X233045000Y-120142000D02*
X233045000Y-113142000D01*
X229731000Y-123456000D02*
X233045000Y-120142000D01*
X229731000Y-127635000D02*
X229731000Y-123456000D01*
X237651000Y-127635000D02*
X237651000Y-135284500D01*
X233727000Y-139208500D02*
X233727000Y-149479000D01*
X237651000Y-135284500D02*
X233727000Y-139208500D01*
X241611000Y-149443000D02*
X241647000Y-149479000D01*
X241611000Y-127635000D02*
X241611000Y-149443000D01*
X245571000Y-149443000D02*
X245607000Y-149479000D01*
X245571000Y-127635000D02*
X245571000Y-149443000D01*
X253809500Y-110490000D02*
X264429000Y-110490000D01*
X247354990Y-116944510D02*
X253809500Y-110490000D01*
X247354990Y-122088010D02*
X247354990Y-116944510D01*
X264429000Y-110490000D02*
X267081000Y-113142000D01*
X245571000Y-123872000D02*
X247354990Y-122088010D01*
X245571000Y-127635000D02*
X245571000Y-123872000D01*
X249531000Y-149443000D02*
X249567000Y-149479000D01*
X249531000Y-127635000D02*
X249531000Y-149443000D01*
X274828000Y-116967000D02*
X278003000Y-120142000D01*
X254698500Y-116967000D02*
X274828000Y-116967000D01*
X249531000Y-127635000D02*
X249531000Y-124928500D01*
X249531000Y-124928500D02*
X251333000Y-123126500D01*
X251333000Y-120332500D02*
X254698500Y-116967000D01*
X251333000Y-123126500D02*
X251333000Y-120332500D01*
X253491000Y-149443000D02*
X253527000Y-149479000D01*
X253491000Y-127635000D02*
X253491000Y-149443000D01*
X253491000Y-127635000D02*
X253491000Y-126683500D01*
X253491000Y-125921500D02*
X253491000Y-127635000D01*
X255841500Y-123571000D02*
X253491000Y-125921500D01*
X285496000Y-123571000D02*
X255841500Y-123571000D01*
X288925000Y-120142000D02*
X285496000Y-123571000D01*
X257451000Y-149443000D02*
X257487000Y-149479000D01*
X257451000Y-127635000D02*
X257451000Y-149443000D01*
X126428500Y-105791000D02*
X131635500Y-105791000D01*
X136588500Y-100838000D02*
X131635500Y-105791000D01*
X137524500Y-100838000D02*
X136588500Y-100838000D01*
D21*
X85407500Y-103314500D02*
X83693000Y-105029000D01*
X100266500Y-103314500D02*
X85407500Y-103314500D01*
X87185500Y-112776000D02*
X83629500Y-116332000D01*
X87185500Y-112776000D02*
X100203000Y-112776000D01*
X100203000Y-112776000D02*
X104965500Y-108013500D01*
M02*
