%FSLAX45Y45*%
G04 Gerber Fmt 4.5, Leading zero omitted, Abs format (unit mm)*
G04 Created by KiCad (PCBNEW 5.1.12-84ad8e8a86~92~ubuntu20.04.1) date 2022-03-17 08:21:58*
%MOMM*%
%LPD*%
G01*
G04 APERTURE LIST*
%TA.AperFunction,Profile*%
%ADD10C,0.050000*%
%TD*%
%ADD11C,0.200000*%
%ADD12C,0.300000*%
G04 APERTURE END LIST*
D10*
X1524000Y-15938500D02*
X1524000Y-6731000D01*
X41529000Y-15938500D02*
X1524000Y-15938500D01*
X41529000Y-6731000D02*
X41529000Y-15938500D01*
X1524000Y-6731000D02*
X41529000Y-6731000D01*
D11*
X1895900Y-14748300D02*
X2345900Y-15198300D01*
X2345900Y-14748300D02*
X1895900Y-15198300D01*
X1908600Y-7141000D02*
X2358600Y-7591000D01*
X2358600Y-7141000D02*
X1908600Y-7591000D01*
X12214650Y-7141000D02*
X12664650Y-7591000D01*
X12664650Y-7141000D02*
X12214650Y-7591000D01*
X18164600Y-14748300D02*
X18614600Y-15198300D01*
X18614600Y-14748300D02*
X18164600Y-15198300D01*
X21066550Y-7141000D02*
X21516550Y-7591000D01*
X21516550Y-7141000D02*
X21066550Y-7591000D01*
X27683250Y-14748300D02*
X28133250Y-15198300D01*
X28133250Y-14748300D02*
X27683250Y-15198300D01*
X32204450Y-7141000D02*
X32654450Y-7591000D01*
X32654450Y-7141000D02*
X32204450Y-7591000D01*
X40637250Y-14748300D02*
X41087250Y-15198300D01*
X41087250Y-14748300D02*
X40637250Y-15198300D01*
X40700750Y-7141000D02*
X41150750Y-7591000D01*
X41150750Y-7141000D02*
X40700750Y-7591000D01*
D12*
X1807928Y-16406714D02*
X1807928Y-16106714D01*
X1879357Y-16106714D01*
X1922214Y-16121000D01*
X1950786Y-16149571D01*
X1965071Y-16178143D01*
X1979357Y-16235286D01*
X1979357Y-16278143D01*
X1965071Y-16335286D01*
X1950786Y-16363857D01*
X1922214Y-16392429D01*
X1879357Y-16406714D01*
X1807928Y-16406714D01*
X2107928Y-16406714D02*
X2107928Y-16206714D01*
X2107928Y-16263857D02*
X2122214Y-16235286D01*
X2136500Y-16221000D01*
X2165071Y-16206714D01*
X2193643Y-16206714D01*
X2293643Y-16406714D02*
X2293643Y-16206714D01*
X2293643Y-16106714D02*
X2279357Y-16121000D01*
X2293643Y-16135286D01*
X2307928Y-16121000D01*
X2293643Y-16106714D01*
X2293643Y-16135286D01*
X2479357Y-16406714D02*
X2450786Y-16392429D01*
X2436500Y-16363857D01*
X2436500Y-16106714D01*
X2636500Y-16406714D02*
X2607928Y-16392429D01*
X2593643Y-16363857D01*
X2593643Y-16106714D01*
X2979357Y-16406714D02*
X2979357Y-16106714D01*
X3079357Y-16321000D01*
X3179357Y-16106714D01*
X3179357Y-16406714D01*
X3450786Y-16406714D02*
X3450786Y-16249571D01*
X3436500Y-16221000D01*
X3407928Y-16206714D01*
X3350786Y-16206714D01*
X3322214Y-16221000D01*
X3450786Y-16392429D02*
X3422214Y-16406714D01*
X3350786Y-16406714D01*
X3322214Y-16392429D01*
X3307928Y-16363857D01*
X3307928Y-16335286D01*
X3322214Y-16306714D01*
X3350786Y-16292429D01*
X3422214Y-16292429D01*
X3450786Y-16278143D01*
X3593643Y-16206714D02*
X3593643Y-16506714D01*
X3593643Y-16221000D02*
X3622214Y-16206714D01*
X3679357Y-16206714D01*
X3707928Y-16221000D01*
X3722214Y-16235286D01*
X3736500Y-16263857D01*
X3736500Y-16349571D01*
X3722214Y-16378143D01*
X3707928Y-16392429D01*
X3679357Y-16406714D01*
X3622214Y-16406714D01*
X3593643Y-16392429D01*
X3865071Y-16378143D02*
X3879357Y-16392429D01*
X3865071Y-16406714D01*
X3850786Y-16392429D01*
X3865071Y-16378143D01*
X3865071Y-16406714D01*
X3865071Y-16221000D02*
X3879357Y-16235286D01*
X3865071Y-16249571D01*
X3850786Y-16235286D01*
X3865071Y-16221000D01*
X3865071Y-16249571D01*
X1071500Y-16676000D02*
X1521500Y-17126000D01*
X1521500Y-16676000D02*
X1071500Y-17126000D01*
X1936500Y-16836714D02*
X1936500Y-17036714D01*
X1865071Y-16722429D02*
X1793643Y-16936714D01*
X1979357Y-16936714D01*
X2093643Y-17008143D02*
X2107928Y-17022429D01*
X2093643Y-17036714D01*
X2079357Y-17022429D01*
X2093643Y-17008143D01*
X2093643Y-17036714D01*
X2379357Y-16736714D02*
X2236500Y-16736714D01*
X2222214Y-16879572D01*
X2236500Y-16865286D01*
X2265071Y-16851000D01*
X2336500Y-16851000D01*
X2365071Y-16865286D01*
X2379357Y-16879572D01*
X2393643Y-16908143D01*
X2393643Y-16979572D01*
X2379357Y-17008143D01*
X2365071Y-17022429D01*
X2336500Y-17036714D01*
X2265071Y-17036714D01*
X2236500Y-17022429D01*
X2222214Y-17008143D01*
X2579357Y-16736714D02*
X2607928Y-16736714D01*
X2636500Y-16751000D01*
X2650786Y-16765286D01*
X2665071Y-16793857D01*
X2679357Y-16851000D01*
X2679357Y-16922429D01*
X2665071Y-16979572D01*
X2650786Y-17008143D01*
X2636500Y-17022429D01*
X2607928Y-17036714D01*
X2579357Y-17036714D01*
X2550786Y-17022429D01*
X2536500Y-17008143D01*
X2522214Y-16979572D01*
X2507928Y-16922429D01*
X2507928Y-16851000D01*
X2522214Y-16793857D01*
X2536500Y-16765286D01*
X2550786Y-16751000D01*
X2579357Y-16736714D01*
X2865071Y-16736714D02*
X2893643Y-16736714D01*
X2922214Y-16751000D01*
X2936500Y-16765286D01*
X2950786Y-16793857D01*
X2965071Y-16851000D01*
X2965071Y-16922429D01*
X2950786Y-16979572D01*
X2936500Y-17008143D01*
X2922214Y-17022429D01*
X2893643Y-17036714D01*
X2865071Y-17036714D01*
X2836500Y-17022429D01*
X2822214Y-17008143D01*
X2807928Y-16979572D01*
X2793643Y-16922429D01*
X2793643Y-16851000D01*
X2807928Y-16793857D01*
X2822214Y-16765286D01*
X2836500Y-16751000D01*
X2865071Y-16736714D01*
X3093643Y-17036714D02*
X3093643Y-16836714D01*
X3093643Y-16865286D02*
X3107928Y-16851000D01*
X3136500Y-16836714D01*
X3179357Y-16836714D01*
X3207928Y-16851000D01*
X3222214Y-16879572D01*
X3222214Y-17036714D01*
X3222214Y-16879572D02*
X3236500Y-16851000D01*
X3265071Y-16836714D01*
X3307928Y-16836714D01*
X3336500Y-16851000D01*
X3350786Y-16879572D01*
X3350786Y-17036714D01*
X3493643Y-17036714D02*
X3493643Y-16836714D01*
X3493643Y-16865286D02*
X3507928Y-16851000D01*
X3536500Y-16836714D01*
X3579357Y-16836714D01*
X3607928Y-16851000D01*
X3622214Y-16879572D01*
X3622214Y-17036714D01*
X3622214Y-16879572D02*
X3636500Y-16851000D01*
X3665071Y-16836714D01*
X3707928Y-16836714D01*
X3736500Y-16851000D01*
X3750786Y-16879572D01*
X3750786Y-17036714D01*
X4336500Y-16722429D02*
X4079357Y-17108143D01*
X4722214Y-16736714D02*
X4750786Y-16736714D01*
X4779357Y-16751000D01*
X4793643Y-16765286D01*
X4807928Y-16793857D01*
X4822214Y-16851000D01*
X4822214Y-16922429D01*
X4807928Y-16979572D01*
X4793643Y-17008143D01*
X4779357Y-17022429D01*
X4750786Y-17036714D01*
X4722214Y-17036714D01*
X4693643Y-17022429D01*
X4679357Y-17008143D01*
X4665071Y-16979572D01*
X4650786Y-16922429D01*
X4650786Y-16851000D01*
X4665071Y-16793857D01*
X4679357Y-16765286D01*
X4693643Y-16751000D01*
X4722214Y-16736714D01*
X4950786Y-17008143D02*
X4965071Y-17022429D01*
X4950786Y-17036714D01*
X4936500Y-17022429D01*
X4950786Y-17008143D01*
X4950786Y-17036714D01*
X5250786Y-17036714D02*
X5079357Y-17036714D01*
X5165071Y-17036714D02*
X5165071Y-16736714D01*
X5136500Y-16779572D01*
X5107928Y-16808143D01*
X5079357Y-16822429D01*
X5350786Y-16736714D02*
X5550786Y-16736714D01*
X5422214Y-17036714D01*
X5636500Y-16736714D02*
X5836500Y-16736714D01*
X5707928Y-17036714D01*
X5936500Y-16765286D02*
X5950786Y-16751000D01*
X5979357Y-16736714D01*
X6050786Y-16736714D01*
X6079357Y-16751000D01*
X6093643Y-16765286D01*
X6107928Y-16793857D01*
X6107928Y-16822429D01*
X6093643Y-16865286D01*
X5922214Y-17036714D01*
X6107928Y-17036714D01*
X6222214Y-16736714D02*
X6222214Y-16793857D01*
X6336500Y-16736714D02*
X6336500Y-16793857D01*
X6779357Y-17151000D02*
X6765071Y-17136714D01*
X6736500Y-17093857D01*
X6722214Y-17065286D01*
X6707928Y-17022429D01*
X6693643Y-16951000D01*
X6693643Y-16893857D01*
X6707928Y-16822429D01*
X6722214Y-16779572D01*
X6736500Y-16751000D01*
X6765071Y-16708143D01*
X6779357Y-16693857D01*
X6907928Y-17036714D02*
X6965071Y-17036714D01*
X6993643Y-17022429D01*
X7007928Y-17008143D01*
X7036500Y-16965286D01*
X7050786Y-16908143D01*
X7050786Y-16793857D01*
X7036500Y-16765286D01*
X7022214Y-16751000D01*
X6993643Y-16736714D01*
X6936500Y-16736714D01*
X6907928Y-16751000D01*
X6893643Y-16765286D01*
X6879357Y-16793857D01*
X6879357Y-16865286D01*
X6893643Y-16893857D01*
X6907928Y-16908143D01*
X6936500Y-16922429D01*
X6993643Y-16922429D01*
X7022214Y-16908143D01*
X7036500Y-16893857D01*
X7050786Y-16865286D01*
X7407928Y-17036714D02*
X7407928Y-16736714D01*
X7536500Y-17036714D02*
X7536500Y-16879572D01*
X7522214Y-16851000D01*
X7493643Y-16836714D01*
X7450786Y-16836714D01*
X7422214Y-16851000D01*
X7407928Y-16865286D01*
X7722214Y-17036714D02*
X7693643Y-17022429D01*
X7679357Y-17008143D01*
X7665071Y-16979572D01*
X7665071Y-16893857D01*
X7679357Y-16865286D01*
X7693643Y-16851000D01*
X7722214Y-16836714D01*
X7765071Y-16836714D01*
X7793643Y-16851000D01*
X7807928Y-16865286D01*
X7822214Y-16893857D01*
X7822214Y-16979572D01*
X7807928Y-17008143D01*
X7793643Y-17022429D01*
X7765071Y-17036714D01*
X7722214Y-17036714D01*
X7993643Y-17036714D02*
X7965071Y-17022429D01*
X7950786Y-16993857D01*
X7950786Y-16736714D01*
X8222214Y-17022429D02*
X8193643Y-17036714D01*
X8136500Y-17036714D01*
X8107928Y-17022429D01*
X8093643Y-16993857D01*
X8093643Y-16879572D01*
X8107928Y-16851000D01*
X8136500Y-16836714D01*
X8193643Y-16836714D01*
X8222214Y-16851000D01*
X8236500Y-16879572D01*
X8236500Y-16908143D01*
X8093643Y-16936714D01*
X8350786Y-17022429D02*
X8379357Y-17036714D01*
X8436500Y-17036714D01*
X8465071Y-17022429D01*
X8479357Y-16993857D01*
X8479357Y-16979572D01*
X8465071Y-16951000D01*
X8436500Y-16936714D01*
X8393643Y-16936714D01*
X8365071Y-16922429D01*
X8350786Y-16893857D01*
X8350786Y-16879572D01*
X8365071Y-16851000D01*
X8393643Y-16836714D01*
X8436500Y-16836714D01*
X8465071Y-16851000D01*
X8579357Y-17151000D02*
X8593643Y-17136714D01*
X8622214Y-17093857D01*
X8636500Y-17065286D01*
X8650786Y-17022429D01*
X8665071Y-16951000D01*
X8665071Y-16893857D01*
X8650786Y-16822429D01*
X8636500Y-16779572D01*
X8622214Y-16751000D01*
X8593643Y-16708143D01*
X8579357Y-16693857D01*
X9122214Y-17151000D02*
X9107928Y-17136714D01*
X9079357Y-17093857D01*
X9065071Y-17065286D01*
X9050786Y-17022429D01*
X9036500Y-16951000D01*
X9036500Y-16893857D01*
X9050786Y-16822429D01*
X9065071Y-16779572D01*
X9079357Y-16751000D01*
X9107928Y-16708143D01*
X9122214Y-16693857D01*
X9236500Y-16836714D02*
X9236500Y-17036714D01*
X9236500Y-16865286D02*
X9250786Y-16851000D01*
X9279357Y-16836714D01*
X9322214Y-16836714D01*
X9350786Y-16851000D01*
X9365071Y-16879572D01*
X9365071Y-17036714D01*
X9550786Y-17036714D02*
X9522214Y-17022429D01*
X9507928Y-17008143D01*
X9493643Y-16979572D01*
X9493643Y-16893857D01*
X9507928Y-16865286D01*
X9522214Y-16851000D01*
X9550786Y-16836714D01*
X9593643Y-16836714D01*
X9622214Y-16851000D01*
X9636500Y-16865286D01*
X9650786Y-16893857D01*
X9650786Y-16979572D01*
X9636500Y-17008143D01*
X9622214Y-17022429D01*
X9593643Y-17036714D01*
X9550786Y-17036714D01*
X9736500Y-16836714D02*
X9850786Y-16836714D01*
X9779357Y-16736714D02*
X9779357Y-16993857D01*
X9793643Y-17022429D01*
X9822214Y-17036714D01*
X9850786Y-17036714D01*
X10179357Y-16836714D02*
X10179357Y-17136714D01*
X10179357Y-16851000D02*
X10207928Y-16836714D01*
X10265071Y-16836714D01*
X10293643Y-16851000D01*
X10307928Y-16865286D01*
X10322214Y-16893857D01*
X10322214Y-16979572D01*
X10307928Y-17008143D01*
X10293643Y-17022429D01*
X10265071Y-17036714D01*
X10207928Y-17036714D01*
X10179357Y-17022429D01*
X10493643Y-17036714D02*
X10465071Y-17022429D01*
X10450786Y-16993857D01*
X10450786Y-16736714D01*
X10736500Y-17036714D02*
X10736500Y-16879572D01*
X10722214Y-16851000D01*
X10693643Y-16836714D01*
X10636500Y-16836714D01*
X10607928Y-16851000D01*
X10736500Y-17022429D02*
X10707928Y-17036714D01*
X10636500Y-17036714D01*
X10607928Y-17022429D01*
X10593643Y-16993857D01*
X10593643Y-16965286D01*
X10607928Y-16936714D01*
X10636500Y-16922429D01*
X10707928Y-16922429D01*
X10736500Y-16908143D01*
X10836500Y-16836714D02*
X10950786Y-16836714D01*
X10879357Y-16736714D02*
X10879357Y-16993857D01*
X10893643Y-17022429D01*
X10922214Y-17036714D01*
X10950786Y-17036714D01*
X11165071Y-17022429D02*
X11136500Y-17036714D01*
X11079357Y-17036714D01*
X11050786Y-17022429D01*
X11036500Y-16993857D01*
X11036500Y-16879572D01*
X11050786Y-16851000D01*
X11079357Y-16836714D01*
X11136500Y-16836714D01*
X11165071Y-16851000D01*
X11179357Y-16879572D01*
X11179357Y-16908143D01*
X11036500Y-16936714D01*
X11436500Y-17036714D02*
X11436500Y-16736714D01*
X11436500Y-17022429D02*
X11407928Y-17036714D01*
X11350786Y-17036714D01*
X11322214Y-17022429D01*
X11307928Y-17008143D01*
X11293643Y-16979572D01*
X11293643Y-16893857D01*
X11307928Y-16865286D01*
X11322214Y-16851000D01*
X11350786Y-16836714D01*
X11407928Y-16836714D01*
X11436500Y-16851000D01*
X11550786Y-17151000D02*
X11565071Y-17136714D01*
X11593643Y-17093857D01*
X11607928Y-17065286D01*
X11622214Y-17022429D01*
X11636500Y-16951000D01*
X11636500Y-16893857D01*
X11622214Y-16822429D01*
X11607928Y-16779572D01*
X11593643Y-16751000D01*
X11565071Y-16708143D01*
X11550786Y-16693857D01*
M02*
